<?xml version="1.0" encoding="UTF-8"?>
<svg xmlns="http://www.w3.org/2000/svg" viewBox="0 0 484.73 460.93">
  <defs>
    <style>
      .cls-1 {
        fill: #ffbda7;
      }

      .cls-2, .cls-3, .cls-4, .cls-5, .cls-6, .cls-7, .cls-8 {
        fill: #fff;
      }

      .cls-9 {
        fill: #fafafa;
      }

      .cls-10 {
        fill: #37474f;
      }

      .cls-11 {
        opacity: .35;
      }

      .cls-11, .cls-12, .cls-13 {
        fill: #2f4ec8;
      }

      .cls-14 {
        fill: #f0997a;
      }

      .cls-15 {
        fill: #f5f5f5;
      }

      .cls-3, .cls-12, .cls-16 {
        opacity: .3;
      }

      .cls-17 {
        fill: #455a64;
      }

      .cls-18 {
        opacity: .2;
      }

      .cls-19 {
        fill: #f28f8f;
      }

      .cls-20 {
        opacity: .65;
      }

      .cls-21 {
        fill: #9a4a4d;
      }

      .cls-22 {
        fill: #e0e0e0;
      }

      .cls-4 {
        opacity: .8;
      }

      .cls-5 {
        opacity: .55;
      }

      .cls-6 {
        opacity: .7;
      }

      .cls-23 {
        opacity: .1;
      }

      .cls-24 {
        fill: #ebebeb;
      }

      .cls-7 {
        opacity: .15;
      }

      .cls-8 {
        opacity: .6;
      }

      .cls-25 {
        fill: #b16668;
      }

      .cls-26 {
        fill: #263238;
      }

      .cls-27 {
        fill: #ffa8a7;
      }
    </style>
  </defs>
  <g id="Plants">
    <g id="Plants-2" data-name="Plants">
      <g>
        <path class="cls-13" d="M33.78,265.19l7.81-4.51s4.65-19.32,2.8-36.71c-2.61-24.44-18.7-33.64-24.81-31.53-6.12,2.11-7.89,9.22,2.23,23.78,5.97,8.59,13.31,26.48,11.97,48.98Z"/>
        <g class="cls-20">
          <path class="cls-2" d="M33.78,265.19l7.81-4.51s4.65-19.32,2.8-36.71c-2.61-24.44-18.7-33.64-24.81-31.53-6.12,2.11-7.89,9.22,2.23,23.78,5.97,8.59,13.31,26.48,11.97,48.98Z"/>
        </g>
        <path class="cls-2" d="M37.02,255.7s-.05,0-.07,0c-.29-.06-.49-.34-.43-.63,4.28-22.55-3.59-47.88-13.35-58.42-.2-.22-.19-.56,.03-.77,.22-.2,.56-.19,.77,.03,9.93,10.73,17.96,36.48,13.61,59.36-.05,.27-.29,.45-.56,.44Z"/>
      </g>
      <g>
        <path class="cls-13" d="M14.12,276.55c-1.17,.59-4.27-2.06-5.14-2.71-1.48-1.11-2.65-2.63-3.39-4.31-.86-1.97-1-4.03-.59-6.14,.21-1.09,.57-2.15,.93-3.2,.35-1.03,.71-2.07,1.06-3.1,.35-1.02,.7-2.07,.62-3.15-.17-2.16-2-3.77-3.67-5.16-1.85-1.53-3.75-3.53-3.61-6.12,.11-2,1.24-3.8,2.55-5.31,1.32-1.51,2.86-2.82,4.06-4.42,.87-1.15,1.56-2.52,1.51-3.96-.04-.89-.36-1.75-.75-2.56-.83-1.73-1.96-3.34-2.5-5.18-.54-1.84-.34-4.09,1.14-5.32,1.21-1.01,2.95-1.07,4.51-.88,1.45,.17,2.83,.9,4.07,1.67,4,2.49,6.1,7.48,10.37,9.46,1.65,.76,3.48,1,5.21,1.56,1.73,.55,3.47,1.54,4.2,3.2,1.44,3.28-1.73,7.07-.78,10.52,.84,3.05,3.71,4.35,5.21,7.14,.66,1.22,.75,2.6,.57,3.97-.31,2.33-.74,4.02-1.99,6.56-1.03,2.1-3.95,6.07-3.95,6.07,0,0-19.49,11.26-19.66,11.35Z"/>
        <g class="cls-16">
          <path class="cls-2" d="M14.12,276.55c-1.17,.59-4.27-2.06-5.14-2.71-1.48-1.11-2.65-2.63-3.39-4.31-.86-1.97-1-4.03-.59-6.14,.21-1.09,.57-2.15,.93-3.2,.35-1.03,.71-2.07,1.06-3.1,.35-1.02,.7-2.07,.62-3.15-.17-2.16-2-3.77-3.67-5.16-1.85-1.53-3.75-3.53-3.61-6.12,.11-2,1.24-3.8,2.55-5.31,1.32-1.51,2.86-2.82,4.06-4.42,.87-1.15,1.56-2.52,1.51-3.96-.04-.89-.36-1.75-.75-2.56-.83-1.73-1.96-3.34-2.5-5.18-.54-1.84-.34-4.09,1.14-5.32,1.21-1.01,2.95-1.07,4.51-.88,1.45,.17,2.83,.9,4.07,1.67,4,2.49,6.1,7.48,10.37,9.46,1.65,.76,3.48,1,5.21,1.56,1.73,.55,3.47,1.54,4.2,3.2,1.44,3.28-1.73,7.07-.78,10.52,.84,3.05,3.71,4.35,5.21,7.14,.66,1.22,.75,2.6,.57,3.97-.31,2.33-.74,4.02-1.99,6.56-1.03,2.1-3.95,6.07-3.95,6.07,0,0-19.49,11.26-19.66,11.35Z"/>
        </g>
        <path class="cls-2" d="M25.43,270.65s-.01,0-.01,0c-.29-.03-.5-.28-.47-.56,1.87-20.28-6.57-43.2-13.21-50.07-.2-.2-.19-.53,.01-.72,.2-.2,.53-.19,.72,.01,6.77,7.01,15.39,30.31,13.49,50.87-.03,.28-.26,.48-.54,.47Z"/>
        <path class="cls-2" d="M23.41,245.65s-.1-.01-.15-.03c-6.43-2.35-14.55-3.11-14.63-3.12-.28-.03-.49-.28-.46-.56,.03-.28,.25-.49,.56-.46,.08,0,8.33,.79,14.89,3.18,.27,.1,.4,.39,.31,.66-.08,.22-.29,.35-.51,.34Z"/>
      </g>
    </g>
    <g id="Plants-3" data-name="Plants">
      <g>
        <path class="cls-13" d="M450.94,265.19l-7.81-4.51s-4.65-19.32-2.8-36.71c2.61-24.44,18.7-33.64,24.81-31.53,6.12,2.11,7.89,9.22-2.23,23.78-5.97,8.59-13.31,26.48-11.97,48.98Z"/>
        <g class="cls-20">
          <path class="cls-2" d="M450.94,265.19l-7.81-4.51s-4.65-19.32-2.8-36.71c2.61-24.44,18.7-33.64,24.81-31.53,6.12,2.11,7.89,9.22-2.23,23.78-5.97,8.59-13.31,26.48-11.97,48.98Z"/>
        </g>
        <path class="cls-2" d="M447.71,255.7s.05,0,.07,0c.29-.06,.49-.34,.43-.63-4.28-22.55,3.59-47.88,13.35-58.42,.2-.22,.19-.56-.03-.77-.22-.2-.56-.19-.77,.03-9.93,10.73-17.96,36.48-13.61,59.36,.05,.27,.29,.45,.56,.44Z"/>
      </g>
      <g>
        <path class="cls-13" d="M470.61,276.55c1.17,.59,4.27-2.06,5.14-2.71,1.48-1.11,2.65-2.63,3.39-4.31,.86-1.97,1-4.03,.59-6.14-.21-1.09-.57-2.15-.93-3.2-.35-1.03-.71-2.07-1.06-3.1-.35-1.02-.7-2.07-.62-3.15,.17-2.16,2-3.77,3.67-5.16,1.85-1.53,3.75-3.53,3.61-6.12-.11-2-1.24-3.8-2.55-5.31-1.32-1.51-2.86-2.82-4.06-4.42-.87-1.15-1.56-2.52-1.51-3.96,.04-.89,.36-1.75,.75-2.56,.83-1.73,1.96-3.34,2.5-5.18,.54-1.84,.34-4.09-1.14-5.32-1.21-1.01-2.95-1.07-4.51-.88-1.45,.17-2.83,.9-4.07,1.67-4,2.49-6.1,7.48-10.37,9.46-1.65,.76-3.48,1-5.21,1.56-1.73,.55-3.47,1.54-4.2,3.2-1.44,3.28,1.73,7.07,.78,10.52-.84,3.05-3.71,4.35-5.21,7.14-.66,1.22-.75,2.6-.57,3.97,.31,2.33,.74,4.02,1.99,6.56,1.03,2.1,3.95,6.07,3.95,6.07,0,0,19.49,11.26,19.66,11.35Z"/>
        <g class="cls-16">
          <path class="cls-2" d="M470.61,276.55c1.17,.59,4.27-2.06,5.14-2.71,1.48-1.11,2.65-2.63,3.39-4.31,.86-1.97,1-4.03,.59-6.14-.21-1.09-.57-2.15-.93-3.2-.35-1.03-.71-2.07-1.06-3.1-.35-1.02-.7-2.07-.62-3.15,.17-2.16,2-3.77,3.67-5.16,1.85-1.53,3.75-3.53,3.61-6.12-.11-2-1.24-3.8-2.55-5.31-1.32-1.51-2.86-2.82-4.06-4.42-.87-1.15-1.56-2.52-1.51-3.96,.04-.89,.36-1.75,.75-2.56,.83-1.73,1.96-3.34,2.5-5.18,.54-1.84,.34-4.09-1.14-5.32-1.21-1.01-2.95-1.07-4.51-.88-1.45,.17-2.83,.9-4.07,1.67-4,2.49-6.1,7.48-10.37,9.46-1.65,.76-3.48,1-5.21,1.56-1.73,.55-3.47,1.54-4.2,3.2-1.44,3.28,1.73,7.07,.78,10.52-.84,3.05-3.71,4.35-5.21,7.14-.66,1.22-.75,2.6-.57,3.97,.31,2.33,.74,4.02,1.99,6.56,1.03,2.1,3.95,6.07,3.95,6.07,0,0,19.49,11.26,19.66,11.35Z"/>
        </g>
        <path class="cls-2" d="M459.3,270.65s.01,0,.01,0c.29-.03,.5-.28,.47-.56-1.87-20.28,6.57-43.2,13.21-50.07,.2-.2,.19-.53-.01-.72-.2-.2-.53-.19-.72,.01-6.77,7.01-15.39,30.31-13.49,50.87,.03,.28,.26,.48,.54,.47Z"/>
        <path class="cls-2" d="M461.31,245.65s.1-.01,.15-.03c6.43-2.35,14.55-3.11,14.63-3.12,.28-.03,.49-.28,.46-.56-.03-.28-.25-.49-.56-.46-.08,0-8.33,.79-14.89,3.18-.27,.1-.4,.39-.31,.66,.08,.22,.29,.35,.51,.34Z"/>
      </g>
    </g>
  </g>
  <g id="Floor">
    <ellipse id="Floor-2" data-name="Floor" class="cls-15" cx="242.36" cy="321" rx="242.36" ry="139.93"/>
  </g>
  <g id="Shadows">
    <polygon id="Shadow" class="cls-22" points="186.56 345.23 255.69 305.32 170.29 256.01 101.17 295.92 186.56 345.23"/>
    <polygon id="Shadow-2" data-name="Shadow" class="cls-22" points="285.63 432.2 349.95 395.06 285.63 357.92 221.3 395.06 285.63 432.2"/>
    <ellipse id="Shadow-3" data-name="Shadow" class="cls-22" cx="383.77" cy="346.1" rx="56.12" ry="32.4"/>
    <ellipse id="Shadow-4" data-name="Shadow" class="cls-22" cx="91.9" cy="343.4" rx="70.76" ry="40.85"/>
  </g>
  <g id="Check_Marks" data-name="Check Marks">
    <g id="Check_Marks-2" data-name="Check Marks">
      <g>
        <path class="cls-22" d="M13.1,60.74c-.12,0-.24-.03-.34-.09-.21-.12-.35-.35-.35-.6v-22.86c0-.25,.13-.47,.35-.6l19.66-11.35c.21-.12,.48-.12,.69,0,.21,.12,.35,.35,.35,.6v22.86c0,.25-.13,.47-.35,.6l-19.66,11.35c-.11,.06-.23,.09-.34,.09Zm.69-23.15v21.26l18.28-10.55V27.03s-18.28,10.55-18.28,10.55Z"/>
        <g>
          <path class="cls-22" d="M13.1,99.58c-.12,0-.24-.03-.34-.09-.21-.12-.35-.35-.35-.6v-22.86c0-.25,.13-.47,.35-.6l19.66-11.35c.21-.12,.48-.12,.69,0,.21,.12,.35,.35,.35,.6v22.86c0,.25-.13,.47-.35,.6l-19.66,11.35c-.11,.06-.23,.09-.34,.09Zm.69-23.15v21.27l18.28-10.55v-21.27s-18.28,10.55-18.28,10.55Z"/>
          <polygon class="cls-13" points="22.69 88.89 18.12 84.49 19.64 81.25 22.25 83.76 33.52 59.91 35.49 61.8 22.69 88.89"/>
        </g>
        <path class="cls-22" d="M13.1,138.42c-.12,0-.24-.03-.34-.09-.21-.12-.35-.35-.35-.6v-22.86c0-.25,.13-.47,.35-.6l19.66-11.35c.21-.12,.48-.12,.69,0,.21,.12,.35,.35,.35,.6v22.86c0,.25-.13,.47-.35,.6l-19.66,11.35c-.11,.06-.23,.09-.34,.09Zm.69-23.15v21.26l18.28-10.55v-21.27s-18.28,10.55-18.28,10.55Z"/>
      </g>
      <g>
        <path class="cls-22" d="M471.28,60.64l-19.66-11.35c-.21-.12-.35-.35-.35-.6V25.84c0-.25,.13-.47,.34-.6,.21-.12,.48-.12,.69,0l19.66,11.35c.21,.12,.35,.35,.35,.6v22.86c0,.25-.13,.47-.35,.6-.11,.06-.23,.09-.34,.09s-.24-.03-.34-.09Zm-18.62-33.61v21.27s18.28,10.55,18.28,10.55v-21.26l-18.28-10.55Z"/>
        <path class="cls-22" d="M471.28,99.49l-19.66-11.35c-.21-.12-.35-.35-.35-.6v-22.86c0-.25,.13-.47,.34-.6,.21-.12,.48-.12,.69,0l19.66,11.35c.21,.12,.35,.35,.35,.6v22.86c0,.25-.13,.47-.35,.6-.11,.06-.23,.09-.34,.09s-.24-.03-.34-.09Zm-18.62-33.61v21.27s18.28,10.55,18.28,10.55v-21.27l-18.28-10.55Z"/>
        <path class="cls-22" d="M471.28,138.33l-19.66-11.35c-.21-.12-.35-.35-.35-.6v-22.86c0-.25,.13-.47,.34-.6,.21-.12,.48-.12,.69,0l19.66,11.35c.21,.12,.35,.35,.35,.6v22.86c0,.25-.13,.47-.35,.6-.11,.06-.23,.09-.34,.09s-.24-.03-.34-.09Zm-18.62-33.61v21.27s18.28,10.55,18.28,10.55v-21.26l-18.28-10.55Z"/>
        <polygon class="cls-13" points="460.86 126.34 456.29 116.66 458.4 114.64 461.46 121.14 472.14 110.85 473.66 114.03 460.86 126.34"/>
      </g>
      <g>
        <g>
          <path class="cls-22" d="M190.51,35.5l-19.66-11.35c-.21-.12-.35-.35-.35-.6V.69c0-.25,.13-.47,.34-.6,.21-.12,.48-.12,.69,0l19.66,11.35c.21,.12,.35,.35,.35,.6v22.86c0,.25-.13,.47-.35,.6-.11,.06-.23,.09-.34,.09s-.24-.03-.34-.09ZM171.89,1.89V23.15s18.28,10.55,18.28,10.55V12.44L171.89,1.89Z"/>
          <polygon class="cls-13" points="180.71 24.8 176.14 15.12 178.25 13.1 181.3 19.6 191.99 9.3 193.51 12.49 180.71 24.8"/>
        </g>
        <path class="cls-22" d="M221,53.09l-19.66-11.35c-.21-.12-.35-.35-.35-.6V18.28c0-.25,.13-.47,.34-.6,.21-.12,.48-.12,.69,0l19.66,11.35c.21,.12,.35,.35,.35,.6v22.86c0,.25-.13,.47-.35,.6-.11,.06-.23,.09-.34,.09s-.24-.03-.34-.09Zm-18.62-33.61v21.27s18.28,10.55,18.28,10.55V30.03l-18.28-10.55Z"/>
        <path class="cls-22" d="M251.45,70.68l-19.66-11.35c-.21-.12-.35-.35-.35-.6v-22.86c0-.25,.13-.47,.34-.6,.21-.12,.48-.12,.69,0l19.66,11.35c.21,.12,.35,.35,.35,.6v22.86c0,.25-.13,.47-.35,.6-.11,.06-.23,.09-.34,.09s-.24-.03-.34-.09Zm-18.62-33.61v21.27s18.28,10.55,18.28,10.55v-21.27l-18.28-10.55Z"/>
      </g>
    </g>
  </g>
  <g id="Cabin">
    <g id="Cabin-2" data-name="Cabin">
      <g id="Stand">
        <g>
          <polygon class="cls-17" points="173.6 128.86 118.36 292.43 114.42 294.71 169.65 131.14 173.6 128.86"/>
          <polygon class="cls-26" points="114.42 294.71 112.46 293.58 167.7 130.02 169.65 131.14 114.42 294.71"/>
          <polygon class="cls-26" points="169.65 262.82 167.7 261.69 112.46 161.91 114.42 163.03 169.65 262.82"/>
          <polygon class="cls-17" points="118.36 160.76 173.6 260.54 169.65 262.81 114.42 163.03 118.36 160.76"/>
        </g>
        <g>
          <polygon class="cls-17" points="187.43 200.64 187.43 205.19 246.61 171.02 246.61 166.47 187.43 200.64"/>
          <polygon class="cls-10" points="187.43 200.64 187.43 205.19 112.46 161.91 112.46 157.36 187.43 200.64"/>
        </g>
        <g>
          <polygon class="cls-17" points="246.61 171.02 191.37 334.59 187.43 336.86 242.66 173.3 246.61 171.02"/>
          <polygon class="cls-26" points="187.43 336.86 185.47 335.74 240.71 172.18 242.66 173.3 187.43 336.86"/>
          <polygon class="cls-26" points="242.66 304.97 240.71 303.85 185.47 204.07 187.43 205.19 242.66 304.97"/>
          <polygon class="cls-17" points="191.37 202.92 246.61 302.7 242.66 304.97 187.43 205.19 191.37 202.92"/>
        </g>
      </g>
      <g id="Cabin-3" data-name="Cabin">
        <g>
          <g>
            <path class="cls-13" d="M171.64,41.18l-15.8,9.12c-26.85,15.5-43.38,44.15-43.38,75.15v31.91l3.94,2.28,59.18-34.17V43.46s-3.94-2.28-3.94-2.28Z"/>
            <path class="cls-8" d="M171.64,41.18l-15.8,9.12c-26.85,15.5-43.38,44.15-43.38,75.15v31.91l3.94,2.28,59.18-34.17V43.46s-3.94-2.28-3.94-2.28Z"/>
            <path class="cls-8" d="M118.88,92.72l56.71,32.74h0s0-82.01,0-82.01l-3.94-2.28-15.8,9.12c-16.97,9.8-29.81,24.85-36.97,42.42Z"/>
            <path class="cls-13" d="M116.41,159.63v-31.91c0-31,16.54-59.65,43.38-75.15l15.8-9.12V125.46s-59.18,34.17-59.18,34.17Z"/>
            <path class="cls-6" d="M116.41,159.63v-31.91c0-31,16.54-59.65,43.38-75.15l15.8-9.12V125.46s-59.18,34.17-59.18,34.17Z"/>
          </g>
          <g>
            <polygon class="cls-13" points="183.48 193.8 116.41 155.08 175.59 120.91 242.66 159.63 183.48 193.8"/>
            <polygon class="cls-4" points="183.48 193.8 116.41 155.08 175.59 120.91 242.66 159.63 183.48 193.8"/>
          </g>
          <g>
            <polygon class="cls-13" points="183.48 198.36 183.48 193.8 116.41 155.08 116.41 159.63 183.48 198.36"/>
            <polygon class="cls-8" points="183.48 198.36 183.48 193.8 116.41 155.08 116.41 159.63 183.48 198.36"/>
          </g>
        </g>
        <g>
          <polygon class="cls-12" points="138.66 156.95 166.28 172.89 201.79 152.39 174.17 136.44 138.66 156.95"/>
          <polygon class="cls-9" points="138.66 155.32 166.28 171.27 201.79 150.77 174.17 134.82 138.66 155.32"/>
          <path class="cls-13" d="M186.01,155.56s-.08-.01-.12-.03l-3.95-2.28c-.07-.04-.12-.12-.12-.21s.05-.17,.12-.21l3.95-2.28c.08-.04,.17-.04,.24,0l3.95,2.28c.07,.04,.12,.12,.12,.21s-.05,.17-.12,.21l-3.95,2.28s-.08,.03-.12,.03Zm-3.46-2.52l3.46,2,3.46-2-3.46-2-3.46,2Z"/>
          <path class="cls-13" d="M178.12,160.12s-.08-.01-.12-.03l-3.94-2.28c-.07-.04-.12-.12-.12-.21s.05-.17,.12-.21l3.94-2.28c.08-.04,.17-.04,.24,0l3.95,2.28c.07,.04,.12,.12,.12,.21s-.05,.17-.12,.21l-3.95,2.28s-.08,.03-.12,.03Zm-3.46-2.52l3.46,2,3.46-2-3.46-2-3.46,2Z"/>
          <path class="cls-13" d="M170.23,164.68s-.08-.01-.12-.03l-3.95-2.28c-.07-.04-.12-.12-.12-.21s.05-.17,.12-.21l3.95-2.28c.08-.04,.17-.04,.24,0l3.95,2.28c.07,.04,.12,.12,.12,.21s-.05,.17-.12,.21l-3.95,2.28s-.08,.03-.12,.03Zm-3.46-2.52l3.46,2,3.46-2-3.46-2-3.46,2Z"/>
          <path class="cls-22" d="M180.05,150.16c-.08,0-.17-.02-.24-.07l-11.84-6.83c-.23-.13-.31-.43-.18-.66,.13-.23,.43-.31,.66-.18l11.84,6.83c.23,.13,.31,.43,.18,.66-.09,.16-.25,.24-.42,.24Z"/>
          <path class="cls-22" d="M172.2,154.67c-.08,0-.17-.02-.24-.07l-11.84-6.83c-.23-.13-.31-.43-.18-.66,.13-.23,.43-.31,.66-.18l11.84,6.83c.23,.13,.31,.43,.18,.66-.09,.16-.25,.24-.42,.24Z"/>
          <path class="cls-22" d="M164.34,159.18c-.08,0-.17-.02-.24-.07l-11.84-6.83c-.23-.13-.31-.43-.18-.66,.13-.23,.43-.31,.66-.18l11.84,6.83c.23,.13,.31,.43,.18,.66-.09,.16-.25,.24-.42,.24Z"/>
        </g>
        <g>
          <g>
            <g>
              <polygon class="cls-13" points="175.59 43.46 242.66 82.18 238.72 84.46 171.64 45.74 175.59 43.46"/>
              <polygon class="cls-4" points="175.59 43.46 242.66 82.18 238.72 84.46 171.64 45.74 175.59 43.46"/>
            </g>
            <g>
              <polygon class="cls-13" points="171.64 45.74 171.64 123.19 238.72 161.91 238.72 84.46 171.64 45.74"/>
              <polygon class="cls-8" points="171.64 45.74 171.64 123.19 238.72 161.91 238.72 84.46 171.64 45.74"/>
            </g>
          </g>
          <g>
            <path class="cls-13" d="M242.66,82.18l-15.8,9.12c-26.85,15.5-43.38,44.15-43.38,75.15v31.91l3.94,2.28,59.18-34.17V84.46s-3.94-2.28-3.94-2.28Z"/>
            <path class="cls-8" d="M242.66,82.18l-15.8,9.12c-26.85,15.5-43.38,44.15-43.38,75.15v31.91l3.94,2.28,59.18-34.17V84.46s-3.94-2.28-3.94-2.28Z"/>
            <path class="cls-8" d="M189.9,133.73l56.71,32.74h0s0-82.01,0-82.01l-3.94-2.28-15.8,9.12c-16.97,9.8-29.81,24.85-36.97,42.42Z"/>
            <path class="cls-13" d="M187.43,200.64v-31.91c0-31,16.54-59.65,43.38-75.15l15.8-9.12v82.01s-59.18,34.17-59.18,34.17Z"/>
            <path class="cls-4" d="M187.43,200.64v-31.91c0-31,16.54-59.65,43.38-75.15l15.8-9.12v82.01s-59.18,34.17-59.18,34.17Z"/>
          </g>
        </g>
      </g>
      <g id="Text">
        <g>
          <path class="cls-17" d="M213.29,134.28l-1.8,4.59v2.63l-.26,.15v-2.63l-1.8-2.52,.34-.2,1.31,1.87,.29,.46,.28-.79,1.32-3.39,.33-.19Z"/>
          <path class="cls-17" d="M215.6,139.2c-1.33,.77-2.03-.04-2.03-1.96s.71-3.61,2.03-4.37c1.33-.77,2.03,.11,2.03,2.03s-.72,3.55-2.03,4.3Zm0-6.01c-1.27,.73-1.76,2.38-1.76,3.89s.5,2.51,1.76,1.78c1.26-.73,1.76-2.3,1.76-3.82s-.48-2.6-1.76-1.86Z"/>
          <path class="cls-17" d="M222.08,129.2v3.37c0,1.92-.58,3.23-1.82,3.94-1.24,.71-1.83,.09-1.83-1.84v-3.37l.26-.15v3.4c0,1.53,.44,2.28,1.57,1.63,1.13-.65,1.56-1.89,1.56-3.44v-3.4l.26-.15Z"/>
          <path class="cls-17" d="M226.7,132.71l-.3,.17-.56-1.3c-.26-.6-.63-.72-1.29-.34l-1.23,.71,.02,.03v2.67l-.26,.15v-6.18l1.89-1.09c.8-.46,1.41-.26,1.41,.93,0,.78-.34,1.64-1.04,2.25v.02c.36-.04,.6,.25,.74,.59l.62,1.4Zm-1.73-4.86l-1.66,.96,.03,.03v2.73l-.03,.06,1.6-.92c.84-.49,1.2-1.37,1.2-2.1,0-1.01-.5-1.12-1.14-.76Z"/>
        </g>
        <g>
          <path class="cls-13" d="M201.45,165.02l-3.73-11.76,2.85-1.64,1.61,5.67c.64,2.23,.9,3.16,.91,3.21l.04-.03c.02-.07,.27-1.29,.89-4.19l1.63-7.6,2.71-1.57-3.73,16.07-3.19,1.84Z"/>
          <path class="cls-13" d="M214.01,143.58c3.19-1.84,5.5-.2,5.5,4.06s-2.31,8.57-5.5,10.41c-3.19,1.84-5.5,.2-5.5-4.06s2.31-8.57,5.5-10.41Zm0,11.31c1.73-1,2.98-3.31,2.98-5.8s-1.25-3.37-2.98-2.37c-1.73,1-2.98,3.31-2.98,5.82s1.25,3.35,2.98,2.35Z"/>
          <path class="cls-13" d="M225.73,140.19v10.81l-2.51,1.45v-10.81l-3.19,1.84v-3.1l8.89-5.13v3.1l-3.19,1.84Z"/>
          <path class="cls-13" d="M230.21,134.5l7.61-4.39v3.1l-5.1,2.95v2.38l3.76-2.17v2.78l-3.76,2.17v2.54l5.18-2.99v3.1l-7.68,4.43v-13.91Z"/>
        </g>
        <g>
          <path class="cls-17" d="M208.3,171.62l-.26,.15v-5.4h-.01s-.32,1.24-.32,1.24l-1.53,5.31h-.01s-1.54-3.55-1.54-3.55l-.31-.86h-.01v5.42l-.26,.15v-6.18l.24-.14,1.65,3.82,.24,.61h.01s.23-.89,.23-.89l1.65-5.72,.23-.13v6.18Z"/>
          <path class="cls-17" d="M213.11,168.84l-.29,.17-.53-1.33v-.04s-2.59,1.5-2.59,1.5v.03s-.51,1.93-.51,1.93l-.29,.17,1.99-7.33,.23-.13,1.99,5.04Zm-.92-1.46l-.03-.03-1.02-2.61-.13-.47h-.01s-.13,.62-.13,.62l-1.03,3.8-.03,.06,2.38-1.37Z"/>
          <path class="cls-17" d="M216.37,161.1l-1.68,.97,.02,.03v5.82l-.26,.15v-5.82l.02-.05-1.68,.97v-.33l3.58-2.07v.33Z"/>
          <path class="cls-17" d="M220.18,158.9l-1.68,.97,.02,.03v5.82l-.26,.15v-5.82l.02-.05-1.68,.97v-.33l3.58-2.07v.33Z"/>
          <path class="cls-17" d="M223.93,162.59l-3.12,1.8v-6.18l3.12-1.8v.33l-2.89,1.67,.03,.02v2.52l-.03,.06,2.62-1.51v.33l-2.62,1.51,.03,.02v2.53l-.03,.05,2.89-1.67v.33Z"/>
          <path class="cls-17" d="M228.46,159.98l-.3,.17-.56-1.3c-.26-.6-.63-.72-1.29-.35l-1.23,.71,.02,.02v2.67l-.26,.15v-6.18l1.89-1.09c.8-.46,1.41-.26,1.41,.93,0,.78-.34,1.64-1.04,2.25v.02c.36-.04,.6,.25,.74,.59l.62,1.4Zm-1.73-4.86l-1.66,.96,.03,.03v2.73l-.03,.06,1.6-.92c.84-.49,1.2-1.37,1.2-2.1,0-1.01-.5-1.12-1.14-.75Z"/>
          <path class="cls-17" d="M230.56,158.84c-.68,.39-1.3,.45-1.77,.14l.21-.4c.45,.28,.97,.27,1.55-.06,.97-.56,1.45-1.4,1.45-2.12,0-.57-.32-.85-1.03-.71-.1,.02-.75,.14-.86,.17-.84,.15-1.28,.01-1.28-.79s.48-1.83,1.69-2.53c.62-.36,1.16-.38,1.55-.09l-.2,.38c-.33-.26-.81-.27-1.35,.04-.92,.53-1.43,1.33-1.43,2.04,0,.66,.45,.69,1.18,.55l.78-.15c.88-.16,1.2,.24,1.2,.93,0,.77-.41,1.87-1.71,2.62Z"/>
        </g>
        <polygon class="cls-13" points="232.42 123.01 233.17 124.6 234.84 123.96 233.63 126.24 233.91 128.3 232.42 128.11 230.92 130.03 231.2 127.64 229.99 126.76 231.67 125.47 232.42 123.01"/>
        <polygon class="cls-13" points="203.56 139.67 202.81 142.13 201.13 143.42 202.35 144.3 202.06 146.69 203.56 144.77 205.06 144.96 204.77 142.9 205.99 140.62 204.31 141.26 203.56 139.67"/>
      </g>
    </g>
  </g>
  <g id="Box">
    <g id="Box-2" data-name="Box">
      <g id="Stand-2" data-name="Stand">
        <g>
          <polygon class="cls-17" points="327.79 308.76 289.4 425.63 285.61 427.81 324.01 310.95 327.79 308.76"/>
          <polygon class="cls-26" points="285.61 427.81 283.74 426.73 322.13 309.87 324.01 310.95 285.61 427.81"/>
          <polygon class="cls-26" points="338.59 397.23 336.71 396.15 298.89 324.07 300.76 325.15 338.59 397.23"/>
          <polygon class="cls-17" points="304.55 322.96 342.37 395.04 338.59 397.23 300.76 325.15 304.55 322.96"/>
        </g>
        <g>
          <polygon class="cls-17" points="274.83 278.18 236.44 395.04 232.65 397.23 271.05 280.36 274.83 278.18"/>
          <polygon class="cls-26" points="232.65 397.23 230.78 396.15 269.17 279.28 271.05 280.36 232.65 397.23"/>
          <polygon class="cls-26" points="285.63 366.64 283.75 365.57 245.93 293.49 247.81 294.56 285.63 366.64"/>
          <polygon class="cls-17" points="251.59 292.38 289.41 364.46 285.63 366.64 247.81 294.56 251.59 292.38"/>
        </g>
        <g>
          <polygon class="cls-17" points="281.84 338.26 221.3 303.3 285.63 266.16 346.17 301.12 281.84 338.26"/>
          <polygon class="cls-10" points="281.84 342.63 281.84 338.26 346.17 301.12 346.17 305.49 281.84 342.63"/>
          <polygon class="cls-26" points="281.84 342.63 281.84 338.26 221.3 303.3 221.33 307.66 281.84 342.63"/>
        </g>
      </g>
      <g id="Box-3" data-name="Box">
        <g id="Box-4" data-name="Box">
          <g id="Box-5" data-name="Box">
            <polygon class="cls-13" points="281.87 333.89 281.87 281.46 230.31 251.79 230.31 304.22 281.87 333.89"/>
            <polygon class="cls-13" points="281.87 281.46 337.17 249.52 337.17 301.94 281.87 333.89 281.87 281.46"/>
            <polygon class="cls-7" points="281.87 281.46 337.17 249.52 337.17 301.94 281.87 333.89 281.87 281.46"/>
            <polygon class="cls-13" points="281.87 281.46 228.87 250.95 285.61 218.16 338.62 248.68 281.87 281.46"/>
            <polygon class="cls-3" points="281.87 281.46 228.87 250.95 285.61 218.16 338.62 248.68 281.87 281.46"/>
            <polygon class="cls-13" points="281.87 281.46 281.87 290.82 228.87 260.32 228.87 250.95 281.87 281.46"/>
            <polygon class="cls-13" points="338.62 248.68 281.87 281.46 281.87 290.82 338.62 258.04 338.62 248.68"/>
            <polygon class="cls-7" points="338.62 248.68 281.87 281.46 281.87 290.82 338.62 258.04 338.62 248.68"/>
            <path class="cls-23" d="M230.31,261.15v2.06s51.56,29.67,51.56,29.67v-2.06l-51.56-29.67Zm106.87-2.28l-55.3,31.95v2.06s55.3-31.95,55.3-31.95v-2.06Z"/>
          </g>
        </g>
        <polygon class="cls-13" points="266.71 255.24 274.28 259.61 300.76 244.32 293.19 239.95 266.71 255.24"/>
        <polygon class="cls-18" points="298.87 245.41 300.76 244.32 293.19 239.95 293.2 242.15 298.87 245.41"/>
        <polygon class="cls-23" points="268.6 256.33 293.19 242.13 293.19 239.95 266.71 255.24 268.6 256.33"/>
        <g>
          <path class="cls-9" d="M293.66,311.81l-3.57-11.28,2.73-1.58,1.54,5.44c.61,2.14,.86,3.03,.87,3.08l.04-.02c.01-.06,.26-1.24,.86-4.02l1.56-7.29,2.6-1.5-3.57,15.41-3.06,1.77Z"/>
          <path class="cls-9" d="M305.7,291.25c3.06-1.77,5.27-.19,5.27,3.89s-2.22,8.22-5.27,9.98c-3.06,1.77-5.27,.19-5.27-3.89s2.22-8.22,5.27-9.98Zm0,10.85c1.66-.96,2.86-3.17,2.86-5.56s-1.2-3.23-2.86-2.28c-1.66,.96-2.86,3.18-2.86,5.58s1.2,3.21,2.86,2.26Z"/>
          <path class="cls-9" d="M316.94,288v10.37l-2.4,1.39v-10.37l-3.06,1.77v-2.97l8.52-4.92v2.97l-3.06,1.77Z"/>
          <path class="cls-9" d="M321.24,282.54l7.29-4.21v2.97l-4.89,2.82v2.29l3.6-2.08v2.67l-3.6,2.08v2.44l4.96-2.86v2.97l-7.36,4.25v-13.34Z"/>
        </g>
      </g>
      <polygon id="Vote" class="cls-9" points="299.89 241.2 297.51 246.15 274.27 259.61 269.43 256.81 282.45 229.33 299.89 241.2"/>
    </g>
  </g>
  <g id="Character_2" data-name="Character 2">
    <g id="Character">
      <g id="Character-2" data-name="Character">
        <g id="Bottom">
          <g>
            <g>
              <path class="cls-10" d="M153.62,351.63c.78-.08,.79,1.82,.31,2.74-1.39,2.62-5.25,5.44-10.89,6.69-5.65,1.25-16.7-.24-20.05-.37-3.35-.13-9.13,1.57-12.47,2.11-6.08,.98-10.24-.7-12.23-2.66-.78-.77-.86-1.9-.83-2.87,.06-2.31,.26-2.78,.52-2.76l55.65-2.88Z"/>
              <path class="cls-17" d="M98.63,347.77c-.49,2.26-.86,6.03-.53,8.33,.7,1.72,2.58,2.7,4.09,3.17,3.97,1.25,7.87,1,12.25,.07,2.62-.56,5.48-1.16,8.63-.99,3.46,.19,11.09,.96,14.56,1.01,2.95,.04,6.72-.56,9.44-1.82,2.29-1.06,5.76-3.42,6.54-5.2,.75-4.15,.33-6.63-2.07-8.03-2.53-1.49-6.14-1.78-11.14-2.16-1.5-.11-3.38-.2-4.18-.29-3.02-.33-5.85-.56-8.14-.7-1.96-.12-3.89-.27-5.65-1.23-.84-.46-1.47-.93-1.86-1.8-.48-1.06-.47-2.61-1.4-2.7,0,0-17.1,2.91-18.49,3.05-1.6,.16-.55,2.45-2.04,9.29Z"/>
              <path class="cls-9" d="M137.53,341.72c.5,.33,1,1.02,1.26,1.5,.35,.65,.6,1.27,.79,1.98,.23,.87-.85,1.05-1.27,.05-.29-.69-.58-1.46-1.23-2.37-.31-.44-.99-1.01-1.49-1.06-.37-.04-.87-.09-.87-.09,.23-.65,2.14-.44,2.8,0Z"/>
              <path class="cls-9" d="M129.81,340.82c.61-.07,1.11,.1,1.61,.49,.59,.47,.95,1.12,1.21,1.81,.21,.56,.62,1.99,.69,2.58,.06,.56-1.26,.54-1.4-.07-.14-.6-.43-1.72-.67-2.35-.15-.39-.83-1.86-1.74-2.01l-.41-.02c0-.2,.26-.33,.44-.37,.09-.02,.19-.04,.28-.05Z"/>
              <path class="cls-9" d="M125.28,340.69c.44,.15,.72,.21,1,.58,.27,.35,.58,.92,.71,1.35,.34,1.2,.37,1.74,.4,2.76,.02,.72-1.3,.53-1.34,.05-.14-1.52-.14-2.52-.86-3.63-.6-.92-1.13-1.19-1.13-1.19,.04-.13,.23-.15,.36-.12,.2,.03,.68,.13,.87,.2Z"/>
            </g>
            <path class="cls-1" d="M98.74,320.06s1.48,15.73,1.85,19.37c.12,1.16,2.31,1.63,3.45,2.12,1.13,.49,2.92,1.27,3.89,2.24,2.88,2.86,5.04,3.52,6.77-1.48,.35-1.02,1.01-1.47,2.33-1.23,.98,.18,1.98,.62,2.97,.42,.15-.1,.06-.33-.04-.48-.8-1.14-1.2-1.87-1.04-3.95,.49-6.43,.77-12.89,1.13-19.33l-21.29,2.33Z"/>
          </g>
          <g>
            <path class="cls-1" d="M43.65,308.52c2.03-3.25,2.67-9.29,4.13-20.5l18.49,9.53-7.93,19.42c-.54,.93-.56,2.33-.75,2.6-2.22,3.19-13.95-11.04-13.95-11.04Z"/>
            <g>
              <path class="cls-17" d="M37.51,315.46c.03-.19-.07-1.72-.03-1.9,.43-1.65,1.45-2.11,2.76-3.03,1.62-1.14,3.2-2.51,3.62-3.09,.44-.61,.52-.92,1.2-1.2,1.16-.47,3.03-.51,5.32,.7,3.76,1.98,4.91,4.36,4.7,6.94-.17,1.97-.33,4.58,1.41,5.75,.72,.49,1.86-2.66,1.86-2.66,1.07,1.79-.43,4.27-1.22,7.91-.54,2.49-.41,3.58-.1,6.11,.38,3.19,.82,3.18,2.51,3.4,1.46,.19,5.59-.09,8.11,1.67,3.47,2.42,2.54,5.64,2.54,5.64-.45,1.23-4.22,7.17-18,4.95-4-.64-12.39-6.93-12.26-7.51,.12-.55-.01-1.25-.03-1.81-.05-1.41-.11-2.82-.17-4.23-.06-1.28,.07-2.78-.23-4.02-.28-1.11-.41-2.17-.51-3.33-.26-2.83-.53-5.66-.79-8.49-.08-.81-.8-1-.69-1.8Z"/>
              <path d="M35.77,314.9c-1.36,1.32-.53,5.13,1.29,9.71,.81,2.03,2.31,5.53,1.87,9.24-.44,3.72-.52,5.47,.44,7.21,1.5,2.73,9.51,6.21,14.23,7.3,0,0-4.33-5.43-4.8-13.63-.47-8.2-1.1-13.49-4.85-17.13-4.74-4.6-8.18-2.71-8.18-2.71Z"/>
              <path class="cls-10" d="M70.2,341.7s-2.76,5.18-13.42,5.01c-4.2-.07-6.44-2.11-6.55-8.49-.12-7.69-.74-15.45-3.23-19.27-2.49-3.82-6.45-5.67-9.52-5.39-.53,.09-1.21,.59-1.71,1.35,0,0,3.07-1.01,7.86,2.96,3.53,2.93,4.49,9.05,4.43,16.65-.02,3.27-.22,6.98,.74,9.46,.88,2.29,2.84,3.85,5.09,4.49,5.8,1.63,13.73-1.05,15.73-3.5,1.15-1.63,.58-3.26,.58-3.26Z"/>
              <g>
                <path class="cls-9" d="M57.39,332.98s.78,.55,.86,1.27c.08,.72-.17,2.39-1.68,3.34-.64,.4-1.2,.26-.18-1.09,1.02-1.35,1-3.52,1-3.52Z"/>
                <path class="cls-9" d="M56.82,329.01s.34,.22,.42,1.29c.05,.57-.85,2.88-1.97,3.43-1.12,.55-.51-.74-.03-1.38,.53-.7,1.47-2.28,1.57-3.34Z"/>
                <path class="cls-9" d="M57.2,324.61s.36,.1-.02,1.57c-.13,.5-1.6,1.95-2.32,2.04-.72,.09-1.07-.27-.19-.92,.7-.51,2.4-1.98,2.53-2.69Z"/>
              </g>
            </g>
          </g>
          <g>
            <path class="cls-13" d="M64.1,304.97s3.39-7.95,15.45-34.94c3.65-8.17,4.6-14.23,5.52-18.24,.96-4.18,5.08-24.72,5.08-24.72l5.26,34.18c-.76,3.66-1.85,9.24-1.87,13.49-.02,5.65,.71,14.22,2.31,25.84,2.44,17.77,3.1,27.02,3.1,27.02,1.26,.9,5.23,2.65,12.04,2.26,4.35-.25,8.94-2.48,8.94-2.48,0,0,1.54-18.49,2.18-31.38,.59-11.9,1.57-25.35,2.07-32.52,.95-13.49,1.26-19.3,1.39-40.54,.14-22.03-1.54-54.44-1.54-54.44l-62.51-1.44s-4.11,9.18-2.85,28.16c-.49,18.54-3.24,53.8-3.24,53.8-2.61,6.31-5.46,15.21-6.61,26.1-.92,8.76-2.31,20.3-2.31,20.3,6.62-.25,13.91,4.08,17.57,9.55Z"/>
            <path class="cls-18" d="M90.2,227.25l-3.45-24.5s-8.11-.62-17.85-8.73c0,0,1.28,7.26,15.11,12.22l3.61,25.48-2.63,20.7s5.15-24.71,5.21-25.18Z"/>
          </g>
        </g>
        <g id="Top">
          <g>
            <path class="cls-25" d="M138.96,144.39l2.17,.36,1.29,1.82s-.65,1.26,.02,2.59c.67,1.34,1.64,.91,1.64,.91l.97-2.41,.4-3.35-2.73-2.42-2.68-.52-1.09,3.01Z"/>
            <path class="cls-14" d="M146.84,143.29c.28,1.57,.34,2.15,.11,2.91-.24,.76-.49,1.65-.92,2.53-.28,.59-1.38,.59-2.06-.89-.56-1.22,.23-3.93,.23-3.93l2.64-.62Z"/>
            <path class="cls-14" d="M150.93,139.92c.31,1.54,1.22,4.43,1.39,5.55s-1.22,.97-1.22,.97l-3.28-4.72,3.1-1.8Z"/>
            <path class="cls-1" d="M138.64,128.49c1.46-.6,1.44-.62,3.46,.45,2.02,1.08,6.46,3.99,7.82,5.21,1.36,1.23,1,3.59,1.01,5.63,.01,2.04,.37,4.25,.01,4.82-.36,.57-.96,.21-.96,.21l-11.34-16.33Z"/>
            <g id="Pencil">
              <g>
                <path class="cls-27" d="M151.44,146.93l1.76,6.13c.05,.18-.15,.32-.3,.21l-5.16-3.82,3.7-2.52Z"/>
                <path class="cls-19" d="M152.93,153.29s-.02,0-.03-.02l-5.16-3.82,1.96-1.33,.45,.65,2.86,4.31-.08,.21Z"/>
                <path class="cls-26" d="M152.9,153.27c.15,.11,.35-.03,.3-.21l-.34-1.2h0c-.18,.36-.55,.59-.95,.59h-.11s1.1,.82,1.1,.82Z"/>
                <path class="cls-17" d="M129.94,123.81l.34,.49,.4,.59,17.06,24.57c.7,.17,1.43,0,2.05-.35,.95-.53,1.66-1.45,1.64-2.17l-17.05-24.55-.78-1.12c.46,.75-3.2,3.3-3.67,2.56Z"/>
                <path class="cls-10" d="M129.94,123.81l.34,.49,.4,.59,17.06,24.57c.92,.17,1.73-.07,2.46-.61l-17.76-25.87c.07-.05,.07-.09,.02-.11-.98,.75-2.24,1.37-2.51,.95Z"/>
                <path class="cls-24" d="M131.22,125.66l.75,1.08c.21,.32,1.02,.06,1.84-.41,1.09-.62,2.1-1.74,1.83-2.16l-.55-.8-.2-.28c.27,.43-.74,1.55-1.83,2.16-.79,.45-1.57,.71-1.81,.44h0s-.02-.02-.02-.03Z"/>
                <path class="cls-10" d="M131.41,125.93c.48,.75,4.15-1.82,3.66-2.57l-.75-1.09c.48,.75-3.18,3.32-3.66,2.57l.75,1.09Z"/>
                <path class="cls-24" d="M129.94,123.81l.74,1.07c.47,.74,4.02-1.71,3.71-2.51,0-.01-.01-.03-.02-.05l-.75-1.07c.46,.75-3.2,3.3-3.67,2.56Z"/>
                <path class="cls-27" d="M153.11,153.28c-.05,.03-.12,.04-.18,0,.06,.03,.13,.02,.18,0Z"/>
                <path class="cls-19" d="M128.38,121.59l1.56,2.22c.2,.32,1.01,.06,1.82-.4,1.09-.61,2.12-1.73,1.85-2.16t0,0l-1.58-2.23c-.63-.91-2.63,.15-3.46,1.29-.31,.43-.43,.88-.2,1.28Z"/>
              </g>
              <path class="cls-23" d="M129.88,121.75c1.05-.37,2.04-1.33,2.19-2.15,.06-.3,0-.54-.16-.71-.73-.66-2.56,.34-3.34,1.42-.31,.42-.43,.86-.21,1.26,.24,.34,.8,.43,1.52,.18Z"/>
            </g>
            <path class="cls-1" d="M139.03,136.9c1.53,1.57,3.24,1.98,6.19,2.81,.95,.27,2.54,1.21,3.93,2.15,1.17,.78,1.71,2.25-.52,3.29-1.5,.7-3.41-.17-5.06-.48-.83-.16-1.82-.24-2.43-.2-2.32,.14-2.72,.88-5.33,1.47-2.61,.59-4.71-.07-6.17,.19-1.46,.26-35.54,10.46-35.54,10.46l-.36-18.97s28.49-2.14,33.07-2.93c3.72-.65,8.12-3.69,8.12-3.69l4.1,5.9Z"/>
            <path class="cls-14" d="M129.73,133.81c-.96,.39-1.96,.72-2.92,.88-4.59,.8-33.07,2.93-33.07,2.93l.36,18.97s34.08-10.2,35.54-10.46c.29-.05,.62-.06,.96-.06l-.87-12.27Z"/>
            <path class="cls-14" d="M146.68,134.68c-.73,.77-1.49,.85-2.09,.53-.6-.32-2.59-1.89-2.59-1.89l4.98,7.17s-.28-1.04,.07-1.91c.34-.42,.66-.75,1.28-.85-.92-.15-1.6,.34-1.6,.34,0,0-1.24-.63-1.33-1.95,1.3-.89,1.28-1.44,1.28-1.44Z"/>
          </g>
          <path class="cls-10" d="M61.05,89.03c-4.13,7.9-3.82,16.86-2.63,27.95,1.1,10.23,1.87,16.56,2.81,29.21,1.08,14.45-.85,23.57-.85,23.57,0,0,8.39,11.65,26.41,16.24,31.67,8.07,38.34-2.37,38.34-2.37,0,0-.28-11-.24-19.55,.04-7.7-.14-16.84-.4-24.43-.61-17.43-.81-31.9-2.83-38.12-1.49-3.43-3.05-4.8-6.86-6.53-3.14-1.43-9.13-4.33-13.6-6.06-10.4-4.01-25.06-7.64-25.06-7.64-7.31-.96-12.95,3.62-15.1,7.72Z"/>
          <g>
            <path class="cls-1" d="M103.48,81.31l-2.27,7.64c-5.38,.17-17.59-1.97-20.13-4.45l2.34-9.06,20.06,5.88Z"/>
            <g>
              <path class="cls-14" d="M121.43,59.56s2.07,2.26,2.73,8.87l-4.04,1.95c-.36-4.62-.79-9.35,1.31-10.82Z"/>
              <path class="cls-1" d="M115.49,40.3c6.56,1.67,9.03,8.27,5.26,21.91,.46,14.87-4.86,19.74-7.05,21.27-4.57,1.46-8.87,1.05-14.35-1.51-4.17-1.95-14.67-7.29-18.05-15.04-3.98-9.11-3.13-21.7,3.54-25.22,9.39-4.94,27.17-2.3,30.64-1.42Z"/>
              <path class="cls-14" d="M115,73.78c.07,.04,.15,.07,.19,.14,.03,.05,.05,.11,.08,.17,.06,.12,.13,.23,.2,.34,.16,.23,.35,.44,.56,.64,.39,.36,.85,.59,1.32,.82,.04,.02,.06,.05,.06,.09,0,.05,0,.1-.04,.14-.1,.08-.28,.03-.4,0-.14-.03-.27-.09-.4-.15-.28-.13-.55-.29-.79-.49-.23-.18-.44-.41-.62-.64-.09-.12-.17-.24-.24-.37-.03-.06-.07-.12-.1-.18-.06-.12-.04-.21-.02-.35,0-.05,.09-.2,.17-.16Z"/>
              <path class="cls-14" d="M113.7,83.48c-1.21,.85-7.47,1.63-11.03,.56l.81-2.74s4.88,1.88,10.22,2.18Z"/>
            </g>
            <g>
              <path class="cls-26" d="M114.09,50.15s-.19,1.81-1.44,2.99c-1.25,1.18-2.57,1.83-4.16,1.96,.61,1.93,.75,4.01,.4,6-.11,.63-.28,1.28-.73,1.74-.79,.81-1.82,.53-2.15-.42-.39-1.14-.6-2.28-1.25-3.32-.75-1.21-1.89-2.23-3.27-2.62-5.23-1.5-6.78,6.79-5.16,9.99,2.65,5.24,6.06,2.82,6.06,2.82,0,0,.49,7.42-5.21,9.54,0,0-8.88,1.32-13.99-2.58-3.99-6.21-7.73-13.21-8.5-18.82-1.68-12.21,1.95-19.14,7.4-20.14,1.48-4.31,6.13-6.31,10.39-7.01,5.81-.95,10.78,1.74,16.35,2.72,2.85,.5,5.82,.35,8.59-.44,1.24-.35,2.75-.77,3.66,.11,.36,.35,.54,.84,.64,1.33,.36,1.73-.15,3.62-1.35,4.94,1.66-.77,4.16,.17,5.42,1.59,1.81,2.04,1.79,4.06,.53,6.68-.78,1.62-5.23,6.4-12.25,2.93Z"/>
              <path class="cls-26" d="M82.18,38.45l-4.55-3.82c1.08-1.23,2.97-1.37,4.23-.31,1.26,1.05,1.4,2.9,.32,4.13Z"/>
            </g>
          </g>
          <g>
            <path class="cls-1" d="M172.78,175.69c-1.18-1.18-2.36-2.23-3.34-3.16-.81-.77-1.86-1.83-3.66-3.81-.76-.84-1.6-.43-3.19-.94-1.58-.51-1.11-1.77-2.1-2.25-1.16-.55-1.56-.21-2.68-.73-1.38-.63-2.09-2.11-3.78-1.49-3.06,1.13-4.02,2.55-8.24-1.35-10.42-9.63-16.83-15.78-16.83-15.78,0,0-1.97-26.37-2.82-32.45-1.16-8.24-.9-14.01-11.68-17.52,0,0-8.65,3.98-7.97,19.65,.59,13.53,2.17,26.86,2.96,33.37,.67,5.5,1.65,6.19,8.55,10.96,16.92,11.7,19.52,13.57,21.65,14.94,2.86,1.84,5.81,4.03,8.96,4.2,2.93,.16,7.14-1.77,9.18-2.88,3.3-1.8,5.96-2.73,7.06-2.46s3.03,2.33,5.03,2.88c1.87,.51,3.46-.62,2.89-1.2Z"/>
            <path class="cls-13" d="M114.81,95c4.96,2.27,6.99,3.47,9.61,7.73,1.73,2.82,2.03,5.88,2.75,13.36,.63,6.53,1.5,19.03,1.5,19.03,0,0-1.11,2.98-8.39,5.37-7.27,2.38-12.93-.15-12.93-.15,0,0-1.43-13.05-1.92-18.45-.67-7.35-1.22-21.38,9.37-26.89Z"/>
          </g>
        </g>
      </g>
    </g>
  </g>
  <g id="Character_1" data-name="Character 1">
    <g id="Character-3" data-name="Character">
      <g id="Bottom-2" data-name="Bottom">
        <g>
          <path class="cls-10" d="M419.36,320.89c.46,2.25,1.31,4.86,2.03,9.48,.71,4.53-.38,4.8,2.94,16.36,1.99,6.94,1.63,9.7-3.03,15.55-4.99,6.26-10.19,5-13.59-1.94-2.9-5.94-2.73-8.69-2.74-14.84-.01-6.15-.08-7.94-.39-12.82-.27-4.3,.12-7.24-.17-10.53l14.94-1.25Z"/>
          <path class="cls-25" d="M420.9,337.73c-.93-5.96-1.15-12.13-1.49-16.16-.76-9.02,1.26-26.86-.16-40.42l-25.11-2.29c.84,5.29,7.78,29.21,10.3,43.65,0,0,.99,19.6,2.37,28.23,.17,1.09,1.46,1.76,2.55,1.28,3.41-1.49,8.15-1.67,11.37-.68,1.2,.37,2.45-.42,2.43-1.58-.06-3.19-1.56-7.55-2.26-12.02Z"/>
        </g>
        <g>
          <path class="cls-25" d="M348.86,274.02c.93,18.5,1.12,32.6,.92,40.58-.12,4.92-.87,8.13-2.2,11.51-1.33,3.38-3.64,8.25-5.55,10.4,0,0-6.19,6.63-5.01,7.25,1.18,.62,13.95,1.41,19.02,0,5.07-1.4,7.02-5.65,8.92-13.41,1.9-7.75,3.64-19.1,3.64-19.1,0,0-.21-.3-.49-1.33-.61-2.26,1.81-13.63,2.47-19.28l-21.72-16.64Z"/>
          <g>
            <path class="cls-26" d="M373.13,322.67c-.19,1.92-1.65,4.18-2.14,7.19-.49,3-.81,6.12-.7,10.35,.11,4.24,.12,4.84,.12,4.84l-1.31,.03s-.15-6.12-.22-8.81c-.07-2.69-1.36-5.05-2.65-5.31,0,0,.55-8.13,6.9-8.29Z"/>
            <path class="cls-10" d="M368.42,310.21c.77,2.17,2.72,5.01,3.85,7.09,.65,1.2,1.19,2.86,1.21,3.92,.01,1.04-.35,2.5-1.74,3.87-1.06,1.04-1.81,1.83-3.07,2.99-2.63,2.42-3.73,4.54-5.48,10.16-1.04,3.34-2.72,6.37-5.68,7.99-2.31,1.26-8.64,3.4-16.44,3.07-6.47-.27-8.96-3.09-6.48-5.52,2.47-2.42,6.7-6.74,7.45-7.26,0,0,3.79-.05,6.85,1.36,3.58,1.64,4.68,3.77,8.52,1.96,3.48-1.63,5.32-7.62,5.62-17.16,.33-10.39,5.38-12.47,5.38-12.47Z"/>
          </g>
        </g>
        <g>
          <path class="cls-10" d="M401.84,148.32c.45,2.35,.95,4.56,1.81,5.73,5.24,7.15,10.59,15.82,11.64,29.22,2.52,32.32,2.63,63.54,2.63,63.54,.26,2.85,3.68,8.98,3.25,26.23-.33,12.99-1.28,32.87-1.28,32.87,0,0-11.42,4.64-19.54,1.64-3.34-12.37-8.7-41.78-12.02-55.93-3.5-14.92-5.89-32.92-5.89-32.92l-7.18,27.98s1.86,10.02,.84,19.69c-.92,8.68-6.5,34.73-6.5,34.73,0,0-13.55,2.91-20.57-1.87,0,0-1.7-43.27-1.83-52.82-.13-9.55-1.62-62.18,4.07-87.19,.26-1.17,1.05-9.07,1.05-9.07,6.88,5.59,40.47,4.37,49.53-1.84Z"/>
          <path class="cls-17" d="M420.1,301.12c-3.51,3.27-16.73,4.33-21.01,2.1l1.7,6.99s4.15,1.95,10.31,1.35c6.21-.61,8.77-3.37,8.77-3.37l.22-7.07Z"/>
          <path class="cls-17" d="M370.58,296.8c-3.66,1.26-17.84,.4-21.87-2.04l.24,5.8s5.53,2.51,11.69,3.08c6.19,.58,8.82-1.18,8.82-1.18l1.12-5.66Z"/>
          <path class="cls-26" d="M382.43,218.7l-4.44-31.95s-9.36,.81-16.26-7.58c0,0-.16,8,13.03,11.51l5.2,29.43-4.71,26.56,7.18-27.98Z"/>
        </g>
      </g>
      <g id="Top-2" data-name="Top">
        <g id="Arm">
          <g>
            <path class="cls-25" d="M322.52,127.28c-3.72-2.79-6.53-4.87-10.82-11.72-1.08-1.73-3.14-3.42-4.16-4.35-1.9-1.74-3.09-3.87-3.61-4.94-.39-.93-2.76,.08-2.29,3.3,.34,2.39,1.8,4.57,2.38,5.93-1.27,.04-3.28-.17-6.03-.03-2.75,.14-8.17-.12-7.17,3.01,.22,.7,.79,1.3,.81,2.03,.01,.35-.11,.69-.17,1.04-.25,1.3,.28,2.71,1.32,3.53,.24,.19,.51,.35,.65,.62,.28,.53,.07,1.2,.19,1.77,.13,.65,.51,1.24,.95,1.73,.67,.72,.89,.47,1.56,1.19,.44,.47,.53,1.51,1.56,2.2,.77,.51,2.62,.57,4.59,.54,1.81-.03,3.08,.62,5.7,.55,2.07-.06,4.03,1.1,7.44,4.61,7.67,7.33,8.65,9.71,15.54,15.31,.67,.54,1.33,1.03,1.91,1.41,6.52,4.49,9.1,1,14.25-8.07,6.33-11.15,9.61-17.47,9.61-17.47l10.16-30.29c-6.26,.7-13.62,7.79-19.18,15.82-2.61,3.76-13.42,20.37-13.42,20.37-3.64-2.34-8.03-5.27-11.74-8.06Z"/>
            <g>
              <path class="cls-21" d="M300.64,117.34c.27,.07,.55,.17,.8,.3,.26,.13,.5,.28,.72,.51l-.08-.03c1.22-.16,2.56-.11,3.67,.58,.27,.17,.53,.38,.74,.64,.21,.26,.37,.61,.33,.99-.02,.17-.05,.36-.18,.54-.14,.18-.35,.25-.5,.29-.33,.08-.62,.11-.92,.17-.59,.12-1.17,.32-1.78,.46-.61,.15-1.26,.18-1.88,.14-1.24-.12-2.46-.31-3.63-.73,.59,.16,1.21,.21,1.82,.28,.61,.06,1.22,.14,1.82,.14,.61,0,1.2-.05,1.78-.2,.58-.14,1.16-.35,1.78-.49,.3-.07,.62-.12,.89-.19,.29-.06,.35-.17,.39-.47,.05-.5-.4-.98-.88-1.28-.99-.64-2.25-.79-3.45-.71h-.05s-.03-.03-.03-.03c-.16-.2-.39-.38-.63-.53-.24-.15-.49-.28-.76-.38Z"/>
              <path class="cls-21" d="M304.92,121.19c.5-.19,1.14,.02,1.45,.5,.34,.48,.24,1.16-.06,1.62-.53,.94-1.29,1.76-2.33,2.25-.54,.2-1.1,.2-1.64,.2-.54-.01-1.06-.03-1.59-.06-1.06-.06-2.11-.13-3.17-.25,1.06-.06,2.12-.07,3.18-.07,1.05-.02,2.15,.12,3.08-.2,.44-.15,.86-.51,1.24-.84,.37-.34,.68-.76,.98-1.19,.3-.4,.4-.93,.16-1.36-.22-.44-.77-.7-1.3-.6Z"/>
              <path class="cls-21" d="M304.46,125.08c.44-.18,.97-.26,1.45-.03,.24,.12,.43,.36,.48,.63,.04,.26,.07,.49,.02,.77-.14,.56-.54,.89-.85,1.25-.34,.34-.7,.72-1.22,.9-.53,.17-1.04,.06-1.48,.08-.46,.01-.93,.1-1.4,.16-.94,.15-1.89,.31-2.84,.44,.92-.29,1.84-.54,2.78-.75,.47-.11,.95-.19,1.44-.23,.51-.03,.98,.04,1.37-.1,.4-.12,.75-.45,1.08-.77,.32-.33,.69-.68,.81-1.06,.05-.19,.05-.44,.03-.65-.02-.2-.15-.38-.33-.5-.37-.25-.88-.25-1.34-.15Z"/>
              <path class="cls-21" d="M304.66,128.22c.2,.05,.36,.22,.45,.42,.08,.2,.09,.43,.06,.64-.08,.43-.24,.77-.41,1.14-.1,.18-.21,.35-.33,.51-.12,.17-.3,.34-.47,.43-.34,.22-.7,.39-1.08,.51l.88-.76c.14-.14,.26-.23,.35-.39,.1-.16,.19-.32,.27-.49,.18-.32,.34-.7,.46-1.02,.11-.33,.11-.72-.2-.99Z"/>
              <path class="cls-21" d="M306.63,120.31c-.25,1.16,.38,4.31,2.41,5.79,2.02,1.47,3.54,1.5,3.54,1.5,0,0-1.9,.12-3.7-.81-1.8-.94-2.43-1.93-2.43-1.93l-.19,.8c-.25-.42-.38-.78-1.51-.66,0,0,1.01-.94,1.35-1.6,.34-.66,.83-1.7-.58-2.32,0,0,.46-.06,.85-.22,.39-.17,.27-.54,.27-.54Z"/>
            </g>
          </g>
          <path class="cls-13" d="M367.74,98.23c-8.86,1.62-11.96,1.69-21.13,16.5-5.63,9.09-12.47,20.18-12.47,20.18l-6.55-4.03c1.21,1.23,3.61,7.56,2,11.47-1.61,3.91-5.19,5.53-5.19,5.53,0,0,3.63,3.83,7.19,6.55,3.56,2.71,5.44,3.12,7.61,2.48s4.27-2.99,9.51-9.21c5.39-6.4,11.69-15.81,11.69-15.81l7.35-33.65Z"/>
          <path class="cls-5" d="M367.74,98.23c-8.86,1.62-11.96,1.69-21.13,16.5-5.63,9.09-12.47,20.18-12.47,20.18l-6.55-4.03c1.21,1.23,3.61,7.56,2,11.47-1.61,3.91-5.19,5.53-5.19,5.53,0,0,3.63,3.83,7.19,6.55,3.56,2.71,5.44,3.12,7.61,2.48s4.27-2.99,9.51-9.21c5.39-6.4,11.69-15.81,11.69-15.81l7.35-33.65Z"/>
          <path class="cls-11" d="M334.13,134.9c3.49,2.13,6.85,6.65,7.44,9.32,.2-3.38-1.82-8.43-6.27-11.2l-1.16,1.88Z"/>
          <path class="cls-11" d="M327.65,150.95c.58-.31,1.13-.68,1.65-1.1,1.05-.84,1.93-1.88,2.6-3.05,1.25-2.2,1.77-4.9,1.38-7.4-.02-.13,.13-.13,.15-.01,.62,2.72,.27,5.57-1.18,7.97-.72,1.2-1.67,2.27-2.77,3.13-.45,.35-.93,.66-1.42,.94-.17-.15-.33-.3-.48-.45,.03-.01,.06-.02,.08-.04Z"/>
        </g>
        <path id="Tshirt" class="cls-9" d="M387.18,94.62l14.16,4.4c2.43,.83,11.61,6.44,8.41,20.26-1.06,4.57-2.51,10.99-3.81,17.4-1,4.9,2.67,14.34,5.63,29.36,0,0-12.14,9.66-36.27,6.93-18.41-2.08-25.33-9.95-25.33-9.95-.17-14.33,2.86-23.41,4.23-28.86,0,0-2.06-2.58-2.18-8.4-.12-6.11,3.56-11.46,9.03-18.39,5.21-6.59,10.03-10.23,10.03-10.23l16.12-2.52Z"/>
        <g id="Head">
          <path class="cls-26" d="M355.61,77.37c-.62-2.04-2.91-2.23-3.4-4.96-.48-2.73,.97-4.58,3.21-5.8,2.25-1.22,2.69-3.43,2.25-8.02-.45-4.59,2.81-7.32,6.58-7.88,1.86-.27,4.02-.08,5.32-1.44,.57-.6,.86-1.4,1.26-2.13,1.79-3.32,5.14-4.77,9.61-4.75,1.82,0,4.22,.35,5.85,1.13,2.27,.88,3.4,1.67,5.66,3.76,2.45-.4,7.06,.13,9.56,2.34,1.8,1.51,3.55,3.17,4.09,6.61,.43,2.71,.17,4.25,1.34,5.72,2.38,3,5.35,2.99,6.7,5.52,1.92,3.59-2.81,6.68-.4,11.04,2.03,3.67,.57,7.97-3.62,9.57-2.1,.8-3.89-.28-6.89,.84-2.95,1.1-3.12,3.41-6.94,4.95-3.12,1.26-5.79-1.03-8.32-1.33-3.46-.4-2.35,.74-5.76-1.45-1.17-.75-1.87-2.09-3.05-2.83-3.75-2.24-4.96-1.03-9.5,.61-1.18,.42-5.1,1.52-7.77-1.44-1.39-1.53-2.42-4.22-2.32-6.91-.76,2.5-6.49,2.45-7.07-1.52,1.26,1.94,4.23,.58,3.62-1.63Z"/>
          <g>
            <path class="cls-25" d="M392.58,91.58c.06-2.29,.46-8.08,.46-8.08,.85,2.13,4.72,2.22,6.62-.42,2.4-3.34,2.4-7.31,.76-9.74-1.81-2.68-6.1-2.74-8.02,1.4-2.83,.53-3.91-3.82-1.57-7.81,.05-9.53-12.91-6.33-15.52-14.88-4.57,.64-8.82,4.23-10.54,7.83-1.01,2.12-1.17,3.42-.93,7.71,.09,1.67-1.06,3.61-1.39,5.82-1.53,10.13,1.45,14.17,4.77,16.14,1.77,1.05,4.07,1.73,8.3,1.98,0,0-.07,1.9-.16,3.16-.09,1.26-.21,1.81-1.74,2.02-.52,.07-1.1,.12-1.1,.12,0,0-7,6.46,2.22,8.15,13.76,2.52,19.26-5.87,19.87-7.99-2.1-.45-2.12-1.6-2.03-5.41Z"/>
            <g>
              <g>
                <path class="cls-21" d="M379.64,80.45l-5.08,1.36c.35,1.45,1.77,2.33,3.17,1.95,1.4-.37,2.26-1.86,1.91-3.31Z"/>
                <path class="cls-19" d="M379.27,81.59c-1.4-.1-2.64,.81-3,2.11,.46,.15,.96,.19,1.46,.05,1.01-.27,1.72-1.11,1.92-2.1-.13-.03-.25-.06-.39-.07Z"/>
              </g>
              <path class="cls-26" d="M366.41,65.12l3.73-1.55c-.39-1.06-1.55-1.56-2.58-1.14-1.03,.43-1.55,1.63-1.16,2.68Z"/>
              <path class="cls-26" d="M384.56,66.36l-3.61-1.93c.5-1.03,1.71-1.43,2.71-.89,1,.53,1.4,1.79,.9,2.82Z"/>
              <path class="cls-21" d="M375.52,91.53c6.43-.34,13.67-2.61,15.96-6.1,0,0-.94,3.55-3.55,5.05-5.97,3.44-12.51,3.14-12.51,3.14l.1-2.09Z"/>
              <path class="cls-26" d="M382.42,70.71c0,.94-.76,1.71-1.71,1.71s-1.71-.76-1.71-1.71,.76-1.71,1.71-1.71,1.71,.76,1.71,1.71Z"/>
              <path class="cls-26" d="M370.15,69.91c0,.94-.76,1.71-1.71,1.71s-1.71-.76-1.71-1.71,.76-1.71,1.71-1.71,1.71,.76,1.71,1.71Z"/>
              <polygon class="cls-21" points="368.16 76.59 373.66 78.92 375.1 67.95 368.16 76.59"/>
            </g>
            <path class="cls-24" d="M397.44,82.06c-.06,.77-.73,1.35-1.5,1.3-.77-.06-1.35-.73-1.3-1.5,.06-.77,.73-1.35,1.5-1.3,.77,.06,1.36,.73,1.3,1.5Z"/>
          </g>
        </g>
        <g>
          <path class="cls-13" d="M375.25,95.57c-.66,.24-5.08,1.65-7.51,2.66-7.04,5.39-12.43,13.45-14.26,16.92-2.54,4.83-3.86,9.02-3.99,16.88-.11,6.84-.94,27.2-2.3,38.52,.74,2.65,8.14,5.79,8.14,5.79,.38-10.17,.56-42.07,2.76-52.9,2.61-12.84,14.11-24.57,16.79-26.41l.37-1.47Z"/>
          <path class="cls-13" d="M392.59,94.79l.03,2.1c-6.36,16.54-5.11,24.12-4.3,35,1.93,25.96,4.97,48.47,4.97,48.47,0,0,18.16,.18,24.63-8.56,0,0-5.82-13.15-7.99-26.41-1.29-7.86,2.38-24,1.03-35.39-.57-4.76-2.37-9.51-5.93-10.63-2.95-.92-5.51-1.67-5.51-1.67l-6.91-2.89Z"/>
        </g>
        <g id="Arm-2" data-name="Arm">
          <g>
            <path class="cls-21" d="M415.18,185.8c2.87,.82,6.55-2.75,7.56-4,1.01-1.24-.29-4.2-.9-6.69-.61-2.49,.03-6.71-3.08-5.53-3.11,1.18-9.57,9.5-3.58,16.21Z"/>
            <path class="cls-25" d="M405.57,99.98c9.32,1.95,10.24,1.66,14.64,10.51,5.12,10.3,12.38,27.12,14.22,31.04,1.84,3.92,3.6,6.8-1.33,12.84-4.4,5.39-17.37,20.91-19.29,23.14-1.7,1.97,.21,7.75,6.06,6.92,0,0-4.45,3.94-6.9,3.5-2.11-.38-7.45-3.62-10.49-10.03-1.92-4.04-.31-7.21,2.61-11.71,3.49-5.37,12.13-19.74,12.13-19.74l-12.83-25.69s-5.62-13.68,1.19-20.78Z"/>
          </g>
          <g>
            <path class="cls-13" d="M405.01,99.35c-2.26,2.26-5.84,10.7-.85,22.89l12.6,24.21-5.61,9.01s4.02,5.21,7.37,7.58c3.35,2.37,6.49,1.51,6.49,1.51,0,0,7.21-8,9.76-11.5,2.55-3.5,3-4.53-.25-12.4-3.14-7.6-13.12-30.74-15.26-34.28-2.14-3.54-4.94-5.84-14.24-7.01Z"/>
            <path class="cls-5" d="M405.01,99.35c-2.26,2.26-5.84,10.7-.85,22.89l12.6,24.21-5.61,9.01s4.02,5.21,7.37,7.58c3.35,2.37,6.49,1.51,6.49,1.51,0,0,7.21-8,9.76-11.5,2.55-3.5,3-4.53-.25-12.4-3.14-7.6-13.12-30.74-15.26-34.28-2.14-3.54-4.94-5.84-14.24-7.01Z"/>
            <path class="cls-11" d="M419.33,156.3c-.94-.72-1.83-1.53-2.65-2.38-.8-.83-1.54-1.73-2.21-2.68-.11-.16-.23-.4-.34-.56l-.42,.68c.07,.1,.15,.24,.22,.34,.67,.94,1.4,1.84,2.19,2.68,.81,.86,1.7,1.64,2.64,2.37,.97,.75,2.08,1.52,3.23,1.97,.31,.12,.34-.32,.14-.47-.91-.67-1.88-1.25-2.79-1.94Z"/>
          </g>
        </g>
      </g>
    </g>
  </g>
  <g id="Speech_Bubble" data-name="Speech Bubble">
    <g id="Speech_Bubble-2" data-name="Speech Bubble">
      <g id="Speech_Bubble-3" data-name="Speech Bubble">
        <path class="cls-13" d="M302.07,31.65l29.22,16.9c.58,.33,1.04,1.14,1.04,2.7v35.71c0-.23-.47,.57-1.05,.9l-4.15,2.36c-.58,.33-1.52,.32-2.09-.01l-29.22-16.9c-.58-.33-1.04-1.14-1.04-1.81V35.79c0-.66,.47-1.47,1.05-1.8l4.15-2.36c.58-.33,1.52-.32,2.09,.01Z"/>
        <path class="cls-18" d="M325.04,90.21c.56,.32,1.57,.33,2.09,.01l4.15-2.36c.58-.32,1.05-1.13,1.05-.9V51.25c0-1.24-.13-1.63-.33-1.96l-6.22,3.58c.19,.32,.31,.69,.31,.13v35.7c0,1.51-.43,1.86-1.04,1.5Z"/>
        <path class="cls-3" d="M294.8,35.6c.08-.53,.51-.71,1.03-.41l29.21,16.9c.29,.17,.55,.45,.74,.78l6.23-3.58c-.19-.31-.44-.58-.72-.74l-29.22-16.9c-.57-.33-1.51-.34-2.09,0l-4.15,2.36c-.53,.3-.96,.99-1.04,1.61Z"/>
        <g>
          <path class="cls-13" d="M335.19,76.83c.65-.39,5.65-3.2,5.81-3.3,.48-.29,.66-1.01,.21-1.49l-8.87-10.17-6.25,3.58,9.28,9.91c.43,.46,.26,1.14-.18,1.46Z"/>
          <path class="cls-3" d="M335.19,76.83c.65-.39,5.65-3.2,5.81-3.3,.48-.29,.66-1.01,.21-1.49l-8.87-10.17-6.25,3.58,9.28,9.91c.43,.46,.26,1.14-.18,1.46Z"/>
          <path class="cls-13" d="M295.83,35.19l29.22,16.9c.58,.33,1.04,1.14,1.04,1.81v11.56l9.28,9.91c.6,.64,.16,1.53-.6,1.6l-8.69-.63h0s0,13.27,0,13.27c0,.66-.47,.93-1.04,.6l-29.22-16.9c-.58-.33-1.04-1.14-1.04-1.81V35.79c0-.67,.47-.93,1.04-.6Z"/>
        </g>
      </g>
      <g id="Check">
        <path class="cls-9" d="M307.07,72.82c-.1,0-.2,0-.3-.02-.75-.1-1.4-.58-1.73-1.27l-3.6-7.59c-.53-1.12-.05-2.45,1.07-2.98,1.12-.53,2.45-.05,2.98,1.07l2.13,4.46,10.29-11.98c.81-.94,2.22-1.04,3.16-.24,.94,.81,1.05,2.22,.24,3.16l-12.54,14.61c-.43,.5-1.05,.78-1.7,.78Z"/>
      </g>
    </g>
  </g>
</svg>