<?xml version="1.0" encoding="UTF-8"?>
<svg xmlns="http://www.w3.org/2000/svg" viewBox="0 0 500 372.61">
  <defs>
    <style>
      .cls-1 {
        fill: #f0f0f0;
      }

      .cls-2, .cls-3 {
        fill: #fff;
      }

      .cls-4 {
        fill: #fafafa;
      }

      .cls-5 {
        fill: #f5f5f5;
      }

      .cls-6 {
        fill: #32363f;
      }

      .cls-7 {
        opacity: .2;
      }

      .cls-8 {
        fill: #e0e0e0;
      }

      .cls-9 {
        fill: #e6e6e6;
      }

      .cls-10 {
        opacity: .3;
      }

      .cls-11 {
        fill: #ff5852;
      }

      .cls-12 {
        fill: #ebebeb;
      }

      .cls-13 {
        fill: #fcc1b9;
      }

      .cls-3 {
        opacity: .6;
      }

      .cls-14 {
        fill: #324ec8;
      }
    </style>
  </defs>
  <g id="Background_Complete" data-name="Background Complete">
    <g>
      <rect class="cls-12" y="327.45" width="500" height=".25"/>
      <rect class="cls-12" x="416.78" y="343.54" width="33.12" height=".25"/>
      <rect class="cls-12" x="322.53" y="346.26" width="8.69" height=".25"/>
      <rect class="cls-12" x="396.59" y="334.26" width="19.19" height=".25"/>
      <rect class="cls-12" x="52.46" y="335.94" width="43.19" height=".25"/>
      <rect class="cls-12" x="104.56" y="335.94" width="6.33" height=".25"/>
      <rect class="cls-12" x="131.47" y="340.16" width="93.68" height=".25"/>
      <path class="cls-12" d="M237.01,282.85H43.91c-3.15,0-5.71-2.56-5.71-5.71V5.71c0-3.15,2.56-5.71,5.71-5.71H237.01c3.15,0,5.71,2.56,5.71,5.71V277.14c0,3.15-2.56,5.71-5.71,5.71ZM43.91,.25c-3.01,0-5.46,2.45-5.46,5.46V277.14c0,3.01,2.45,5.46,5.46,5.46H237.01c3.01,0,5.46-2.45,5.46-5.46V5.71c0-3.01-2.45-5.46-5.46-5.46H43.91Z"/>
      <path class="cls-12" d="M453.31,282.85h-193.1c-3.15,0-5.71-2.56-5.71-5.71V5.71c0-3.15,2.56-5.71,5.71-5.71h193.1c3.15,0,5.71,2.56,5.71,5.71V277.14c0,3.15-2.56,5.71-5.71,5.71ZM260.21,.25c-3.01,0-5.46,2.45-5.46,5.46V277.14c0,3.01,2.45,5.46,5.46,5.46h193.1c3.01,0,5.46-2.45,5.46-5.46V5.71c0-3.01-2.45-5.46-5.46-5.46h-193.1Z"/>
    </g>
    <g>
      <g>
        <rect class="cls-9" x="66.8" y="40.66" width="135.7" height="286.79" transform="translate(269.29 368.1) rotate(180)"/>
        <rect class="cls-5" x="63.78" y="40.66" width="135.7" height="286.79" transform="translate(263.26 368.1) rotate(180)"/>
        <rect class="cls-4" x="-5.68" y="121.62" width="274.63" height="124.87" transform="translate(315.68 52.42) rotate(90)"/>
        <polygon class="cls-2" points="165.31 321.37 133.67 46.74 97.95 46.74 129.59 321.37 165.31 321.37"/>
        <rect class="cls-9" x="-66.98" y="182.91" width="274.63" height="2.28" transform="translate(254.39 113.72) rotate(90)"/>
        <rect class="cls-5" x="66.02" y="70.53" width="131.22" height="8.16" transform="translate(263.26 149.21) rotate(180)"/>
      </g>
      <g>
        <rect class="cls-1" x="163.63" y="216.85" width="166.4" height="54.79" transform="translate(491.08 -2.59) rotate(90)"/>
        <rect class="cls-5" x="222.44" y="165.91" width="48.77" height="48.77" transform="translate(437.13 -56.54) rotate(90)"/>
        <rect class="cls-5" x="222.44" y="219.06" width="48.77" height="48.77" transform="translate(490.28 -3.38) rotate(90)"/>
        <rect class="cls-5" x="222.44" y="272.21" width="48.77" height="48.77" transform="translate(543.43 49.77) rotate(90)"/>
        <path class="cls-9" d="M257.63,165.26h-21.59c0,2.79,2.26,5.06,5.06,5.06h11.48c2.79,0,5.06-2.26,5.06-5.06Z"/>
        <path class="cls-9" d="M257.63,218.42h-21.59c0,2.79,2.26,5.06,5.06,5.06h11.48c2.79,0,5.06-2.26,5.06-5.06Z"/>
        <path class="cls-9" d="M257.63,271.57h-21.59c0,2.79,2.26,5.06,5.06,5.06h11.48c2.79,0,5.06-2.26,5.06-5.06Z"/>
        <rect class="cls-5" x="204.71" y="230.56" width="166.4" height="27.37" transform="translate(532.15 -43.66) rotate(90)"/>
      </g>
      <g>
        <g>
          <rect class="cls-1" x="420.49" y="198.08" width="15.19" height="125.28" transform="translate(856.17 521.44) rotate(180)"/>
          <rect class="cls-1" x="287.71" y="323.36" width="145.86" height="4.09" transform="translate(721.29 650.8) rotate(180)"/>
          <rect class="cls-4" x="285.61" y="198.08" width="134.88" height="125.28"/>
          <path class="cls-1" d="M312.02,271.29h82.06c8.06,0,14.61-6.55,14.61-14.61s-6.55-14.61-14.61-14.61h-82.06c-8.06,0-14.61,6.55-14.61,14.61s6.55,14.61,14.61,14.61Zm82.06-28.24c7.51,0,13.63,6.11,13.63,13.63s-6.11,13.63-13.63,13.63h-82.06c-7.51,0-13.63-6.11-13.63-13.63s6.11-13.63,13.63-13.63h82.06Z"/>
          <path class="cls-1" d="M312.02,307.63h82.06c8.06,0,14.61-6.55,14.61-14.61s-6.55-14.61-14.61-14.61h-82.06c-8.06,0-14.61,6.55-14.61,14.61s6.55,14.61,14.61,14.61Zm82.06-28.24c7.51,0,13.63,6.11,13.63,13.63s-6.11,13.63-13.63,13.63h-82.06c-7.51,0-13.63-6.11-13.63-13.63s6.11-13.63,13.63-13.63h82.06Z"/>
          <path class="cls-12" d="M340.67,253.53h24.77c1.68,0,3.05-1.37,3.05-3.05h0c0-1.68-1.37-3.05-3.05-3.05h-24.77c-1.68,0-3.05,1.37-3.05,3.05h0c0,1.68,1.37,3.05,3.05,3.05Z"/>
          <path class="cls-1" d="M312.02,234.94h82.06c8.06,0,14.61-6.55,14.61-14.61s-6.55-14.61-14.61-14.61h-82.06c-8.06,0-14.61,6.55-14.61,14.61s6.55,14.61,14.61,14.61Zm82.06-28.24c7.51,0,13.63,6.11,13.63,13.63s-6.11,13.63-13.63,13.63h-82.06c-7.51,0-13.63-6.11-13.63-13.63s6.11-13.63,13.63-13.63h82.06Z"/>
          <path class="cls-12" d="M340.67,217.18h24.77c1.68,0,3.05-1.37,3.05-3.05h0c0-1.68-1.37-3.05-3.05-3.05h-24.77c-1.68,0-3.05,1.37-3.05,3.05h0c0,1.68,1.37,3.05,3.05,3.05Z"/>
          <path class="cls-12" d="M340.67,289.87h24.77c1.68,0,3.05-1.37,3.05-3.05h0c0-1.68-1.37-3.05-3.05-3.05h-24.77c-1.68,0-3.05,1.37-3.05,3.05h0c0,1.68,1.37,3.05,3.05,3.05Z"/>
        </g>
        <rect class="cls-1" x="282.84" y="191.71" width="137.65" height="6.37" transform="translate(703.32 389.8) rotate(180)"/>
        <rect class="cls-9" x="420.49" y="191.71" width="18.17" height="6.37"/>
      </g>
      <g>
        <path class="cls-8" d="M322.02,91.44c3.07,1.54,11.39-.11,8.61,5.52-1.3,2.65-3.43,5.47-5.69,8.26-3.1,3.82-2.51,7.97,1.15,9.47,.89,.37,1.61,.82,2.02,1.41,1.69,2.42-2.3,5.66-4.25,8.07-1.89,2.34-2.74,4.8-1.3,6.6,1.59,1.99,4.92,1.26,7.55,1.86,6.35,1.44-.18,10.19,.49,14.69,.46,3.08,2.96,3.94,6.35,4.37,2.77,.35,6.46,.6,6.61,3.44,.13,2.45-3.06,5.24-3.9,7.82-.81,2.51-.54,4.94,.61,6.8,1.03,1.66,2.73,2.78,4.98,3.26,3.14,.67,7.9-.03,8.12,3.52,.1,1.58-1,2.99-.23,4.44,.65,1.23,2.12,1.85,3.69,2.17,2.52,.51,6.16,.37,9.06-.16,3.69-.68,9.14-3.93,7.13-7.06-.56-.88-1.64-1.39-2.85-1.64-.89-.18-3.46,.1-3.79-.5-.33-.6,.56-2.9,.6-3.74,.11-2.41-.32-4.67-1.07-6.77-1.02-2.84-2.63-5.39-4.76-7.54-.87-.88-2.27-1.53-2.45-2.82-.17-1.23,.63-2.71,1.53-3.97,1.41-1.99,3.6-3.88,4.39-6.01,1.24-3.34-1.77-4.4-4.56-5.16-2.52-.69-5.84-1.57-4.99-4.63,.62-2.21,3.41-4.02,4.24-6.18,1.12-2.89-1.61-3.01-3.57-4.04-2.54-1.34-3.18-3.73-2.26-6.77,1.52-5,10.69-12.06,6-15.32-1.19-.83-2.3-1.1-3.02-2.35-.77-1.33-.88-2.98-1.88-4.19-1.58-1.91-4.85-2.23-6.56-4.01-3.5-3.64,4.06-10.09-2.84-11.63-1.58-.35-2.98-.68-4.03-1.67-.63-.59-1.14-3.44-1.86-3.64-3.17-.88-8.88,5.27-10.68,7.16-2.18,2.31-10.27,9.1-6.61,10.94Z"/>
        <path class="cls-5" d="M376.39,176.25c-1.88-3.48-10.11-6.96-4.65-11,2.57-1.9,5.95-3.48,9.44-4.93,4.78-1.99,6.48-6.6,4.06-10.41-.59-.93-.98-1.84-1.03-2.7-.19-3.52,5.05-4.37,8.07-5.63,2.92-1.22,4.99-3.21,4.68-5.95-.34-3.03-3.67-4.34-5.67-6.59-4.83-5.42,5.62-10.33,7.43-15.35,1.24-3.44-.5-5.87-3.26-8.42-2.25-2.08-5.38-4.63-3.99-7.63,1.2-2.6,5.51-3.46,7.63-5.58,2.06-2.06,3.12-4.73,3.1-7.34-.02-2.34-.92-4.54-2.65-6.43-2.42-2.64-6.98-4.88-5.28-8.65,.76-1.68,2.48-2.43,2.59-4.4,.09-1.66-.88-3.21-2.09-4.51-1.96-2.09-5.24-4.21-8.08-5.46-3.62-1.6-10.16-1.65-10.07,2.8,.02,1.25,.7,2.44,1.64,3.45,.68,.73,3.11,2.05,3.08,2.87-.03,.82-2.05,2.63-2.53,3.46-1.39,2.4-2.22,4.99-2.67,7.6-.62,3.54-.56,7.15,.16,10.68,.3,1.45,1.18,2.98,.65,4.41-.51,1.37-2.01,2.39-3.48,3.12-2.31,1.16-5.25,1.74-7.09,3.43-2.89,2.65-.79,5.61,1.26,8.12,1.86,2.27,4.31,5.24,1.92,7.84-1.73,1.88-5.16,2-7.05,3.69-2.54,2.27-.19,4.08,.99,6.36,1.52,2.95,.81,5.8-1.63,8.34-4.02,4.18-15.89,5.71-13.49,11.96,.61,1.59,1.44,2.56,1.4,4.27-.03,1.84-.82,3.6-.59,5.45,.37,2.94,3.08,5.3,3.64,8.18,1.14,5.9-8.99,7.81-3.72,13.68,1.2,1.34,2.26,2.55,2.67,4.21,.24,1-.83,4.24-.31,4.88,2.32,2.87,10.66,.13,13.26-.7,3.16-1.01,13.94-2.94,11.69-7.1Z"/>
        <path class="cls-1" d="M397.47,168.39s-1,23.32-39.18,23.32-39.18-23.32-39.18-23.32h78.36Z"/>
      </g>
    </g>
  </g>
  <g id="Shadow">
    <ellipse id="_Path_" data-name="&amp;lt;Path&amp;gt;" class="cls-5" cx="250" cy="361.29" rx="193.89" ry="11.32"/>
  </g>
  <g id="Hourglass">
    <g>
      <g class="cls-7">
        <polygon class="cls-14" points="360.73 352.91 297.04 235.2 233.35 352.91 360.73 352.91"/>
        <polygon class="cls-14" points="360.73 153.77 297.04 271.48 233.35 153.77 360.73 153.77"/>
      </g>
      <g>
        <path class="cls-14" d="M308.71,223.26l-9.32,17.23c-1.01,1.86-3.69,1.86-4.69,0l-9.32-17.23c-3.68-6.8,1.24-15.05,8.97-15.05h5.39c7.73,0,12.65,8.26,8.97,15.05Z"/>
        <path class="cls-14" d="M298.05,323.2l28.91,11.9c2.7,1.11,1.91,5.14-1.02,5.14h-57.82c-2.92,0-3.72-4.02-1.02-5.14l28.91-11.9c.65-.27,1.38-.27,2.03,0Z"/>
        <circle class="cls-14" cx="297.04" cy="296.84" r="3.71"/>
        <circle class="cls-14" cx="297.04" cy="258.1" r="1.91"/>
        <circle class="cls-14" cx="297.04" cy="276.57" r="2.17"/>
      </g>
      <path class="cls-14" d="M360.41,347.11h-126.73c-3.19,0-5.8,2.61-5.8,5.8h0c0,3.19,2.61,5.8,5.8,5.8h126.73c3.19,0,5.8-2.61,5.8-5.8h0c0-3.19-2.61-5.8-5.8-5.8Z"/>
      <path class="cls-14" d="M360.41,147.97h-126.73c-3.19,0-5.8,2.61-5.8,5.8h0c0,3.19,2.61,5.8,5.8,5.8h126.73c3.19,0,5.8-2.61,5.8-5.8h0c0-3.19-2.61-5.8-5.8-5.8Z"/>
    </g>
  </g>
  <g id="Character">
    <g>
      <g>
        <polygon class="cls-13" points="194.63 350.72 187.58 348.44 191.96 331.81 199.01 334.1 194.63 350.72"/>
        <path class="cls-6" d="M187.47,347.5l7.92,2.57c.29,.09,.44,.36,.37,.65l-1.65,6.39c-.17,.66-.98,1.08-1.64,.85-2.74-.94-4.01-1.53-7.49-2.66-2.14-.7-9.21-2.52-12.17-3.48-2.89-.94-1.93-3.86-.59-3.72,6.01,.64,11.39,.35,13.89-.57,.45-.17,.93-.18,1.36-.04Z"/>
        <polygon class="cls-7" points="199.01 334.1 191.96 331.81 189.7 340.38 196.76 342.67 199.01 334.1"/>
        <path class="cls-14" d="M218.28,165.77s-12.65,58.55-15.62,79.6c-3.25,23.05-15.46,92.27-15.46,92.27l13.09,3.62s18.14-67.13,23.43-89.54c5.75-24.32,21.04-85.94,21.04-85.94h-26.49Z"/>
        <path class="cls-10" d="M233.92,184.97c-4.99,11.34-7.47,36.04-5.53,47.35,3.54-14.55,7.8-31.85,11.09-45.16-1.11-3.86-2.95-8.12-5.56-2.19Z"/>
        <polygon class="cls-6" points="200.62 341.52 186.6 337.65 186.87 331.94 202.66 337.4 200.62 341.52"/>
        <path class="cls-6" d="M184.57,347.92c.65,.21,1.42,.31,1.96,.36,.07,0,.13-.03,.17-.09,.03-.06,.03-.13-.01-.19-.17-.23-1.73-2.24-2.7-2.18-.22,.01-.41,.13-.53,.34-.2,.35-.23,.67-.08,.96,.19,.37,.66,.62,1.2,.8Zm1.59-.03c-1.34-.16-2.26-.5-2.48-.93-.09-.18-.07-.38,.07-.62,.07-.11,.15-.17,.26-.17,.52-.03,1.5,.94,2.15,1.73Z"/>
        <path class="cls-6" d="M186.5,348.27s.05,.01,.08,0c.06,0,.11-.05,.13-.1,.03-.08,.85-2.06,.36-2.98-.13-.25-.34-.4-.62-.46-.34-.07-.61,.04-.76,.3-.41,.72,.16,2.53,.73,3.18,.02,.02,.05,.04,.08,.05Zm-.04-3.17c.14,.04,.24,.13,.31,.26,.29,.55-.03,1.73-.26,2.39-.44-.72-.78-2.06-.51-2.53,.05-.09,.14-.19,.39-.14,.03,0,.05,.01,.08,.02Z"/>
      </g>
      <path class="cls-6" d="M231.74,110.18c-.38,.89-.7,1.57-1.05,2.34-.35,.74-.72,1.46-1.09,2.18-.75,1.44-1.52,2.86-2.33,4.27-1.64,2.8-3.41,5.54-5.4,8.18-1.98,2.65-4.16,5.21-6.65,7.6-2.48,2.4-5.32,4.63-8.68,6.41l-.25,.13c-.4,.21-.85,.37-1.27,.46-2.41,.51-4.85,.32-6.87-.28-2.04-.59-3.74-1.47-5.24-2.43-2.99-1.94-5.22-4.24-7.24-6.56-1.99-2.36-3.71-4.8-5.26-7.32-1.55-2.54-2.91-5.05-4.14-7.84-.72-1.64,.03-3.55,1.67-4.27,1.36-.59,2.9-.18,3.8,.91l.1,.12c1.65,2.01,3.44,4.13,5.24,6.07,1.81,1.96,3.67,3.83,5.58,5.48,1.89,1.66,3.9,3.09,5.74,4,.91,.45,1.78,.73,2.47,.81,.69,.08,1.12,.02,1.44-.12l-1.53,.6c1.93-1.25,3.82-2.96,5.61-4.9,1.78-1.95,3.46-4.13,5.05-6.42,1.58-2.3,3.08-4.71,4.49-7.19,.71-1.23,1.4-2.49,2.06-3.75l.97-1.9c.31-.61,.66-1.3,.89-1.8l.06-.13c1.53-3.24,5.41-4.63,8.65-3.1,3.17,1.5,4.56,5.24,3.19,8.44Z"/>
      <path class="cls-10" d="M215.39,123.76c3.14-8.34,9.81-8.48,12.7-6.27-.21,.39-.43,.78-.65,1.17-1.56,2.71-3.27,5.35-5.15,7.91-1.88,2.55-3.94,5.04-6.27,7.38-.72,.71-1.46,1.41-2.23,2.09-.16-3.93,.14-8.38,1.6-12.28Z"/>
      <path class="cls-13" d="M175.98,117.84l-6.5,.23,1.62-6.94s3.87,.16,6.63,.96c1.67,.49,2.36,2.5,1.4,3.96h0c-.7,1.08-1.88,1.74-3.16,1.79Z"/>
      <path class="cls-14" d="M179.64,111.96c-.54-.43-1.24-.83-2.14-1.11-.55,2.84-3.96,7.64-3.96,7.64h2.71c.71,0,1.38-.31,1.84-.86l1.9-2.27c.86-1.03,.72-2.56-.33-3.4Z"/>
      <polygon class="cls-13" points="164.52 114.88 166.35 109.98 171.1 111.13 169.48 118.07 164.52 114.88"/>
      <g>
        <polygon class="cls-13" points="246.25 353.97 238.84 353.97 238.58 336.8 245.99 336.8 246.25 353.97"/>
        <path class="cls-6" d="M238.45,353.11h8.33c.3,0,.53,.21,.55,.51l.4,6.59c.04,.68-.6,1.33-1.3,1.32-2.9-.05-4.28-.22-7.95-.22-2.25,0-9.79,.23-12.9,.23s-3.02-3.08-1.7-3.36c5.91-1.25,11.19-2.97,13.29-4.62,.38-.3,.83-.46,1.28-.46Z"/>
        <polygon class="cls-7" points="246 336.8 238.58 336.8 238.71 345.65 246.13 345.65 246 336.8"/>
        <path class="cls-14" d="M232.74,165.77s-2.83,64.41-1.63,85.64c1.32,23.24,4.08,92.11,4.08,92.11h13.58s3.42-66.99,4.24-90c.89-24.98,4.91-87.74,4.91-87.74h-25.19Z"/>
        <polygon class="cls-6" points="249.32 343.52 234.65 343.52 233.53 338.06 249.72 338.87 249.32 343.52"/>
        <path class="cls-6" d="M235.82,354.4c.68,0,1.44-.14,1.98-.27,.07-.02,.12-.07,.13-.14,.01-.07-.02-.14-.07-.17-.24-.16-2.34-1.6-3.24-1.24-.21,.08-.35,.25-.4,.49-.09,.39-.02,.71,.22,.94,.29,.29,.82,.39,1.39,.39Zm1.5-.52c-1.33,.26-2.3,.22-2.65-.12-.14-.14-.18-.34-.12-.62,.03-.13,.09-.2,.19-.24,.49-.19,1.72,.43,2.58,.98Z"/>
        <path class="cls-6" d="M237.76,354.14s.05,0,.08-.02c.05-.03,.09-.08,.09-.14,0-.09,.17-2.22-.57-2.94-.2-.19-.45-.27-.73-.24-.34,.04-.56,.23-.63,.52-.17,.81,.93,2.36,1.67,2.8,.03,.02,.06,.02,.09,.02Zm-1.01-3c.14,0,.27,.05,.37,.15,.45,.43,.51,1.65,.49,2.36-.64-.54-1.38-1.72-1.27-2.25,.02-.1,.08-.22,.33-.25,.03,0,.05,0,.08,0Z"/>
      </g>
      <path class="cls-6" d="M261.64,105.99c.47-2.62-1.33-5.11-3.96-5.49h-.09c-2.39-.36-5.39-.72-8.33-.86-5.06-.24-12.39-.4-16.85,0-2.59,.24-5.12,.67-7.14,1.06-.03,0-.05,.01-.08,.02-2.57,.52-4.65,2.42-5.39,4.94-2.42,8.15-5.3,24.79-1.53,60.12h39.65c.28-3.54-.51-15.06,.07-29.73,.44-11.18,2.43-23.22,3.65-30.05Z"/>
      <path class="cls-10" d="M261.26,108.17c-.82,4.74-1.84,11.18-2.54,17.97,0,0-3.62-7.1-4.28-13.17s4.51-6.5,6.81-4.8Z"/>
      <g class="cls-7">
        <g>
          <path class="cls-2" d="M234.67,109.1c-.14,0-.27-.07-.33-.2-.1-.18-.02-.41,.16-.51l12.36-6.41c.19-.09,.41-.02,.51,.16,.1,.18,.02,.41-.16,.51l-12.36,6.41c-.06,.03-.11,.04-.17,.04Z"/>
          <path class="cls-2" d="M240.33,109.69c-.1,0-.19-.04-.26-.11l-6.77-6.74c-.15-.15-.15-.38,0-.53,.15-.15,.38-.15,.53,0l6.77,6.74c.15,.15,.15,.38,0,.53-.07,.07-.17,.11-.27,.11Z"/>
        </g>
        <path class="cls-2" d="M249.26,99.63c-5.06-.24-12.39-.4-16.84,0-.09,0-.19,.02-.28,.03-.16,.66-.31,1.89,.43,3.07,.94,1.5,2.91,2.34,5.87,2.5,.38,.02,.75,.03,1.11,.03,8.05,0,11.09-4.86,11.22-5.07l.28-.45c-.6-.04-1.19-.08-1.79-.11Z"/>
      </g>
      <path class="cls-13" d="M233.22,99.57c4.9-1.16,5.76-4.19,5.43-7.52-.07-.81-.21-1.65-.39-2.48l6.14-5.1,4.51-3.74c-1.25,5.43-2.66,15.32,1.01,18.94,0,0-3.04,5.01-11.42,4.55-7.08-.38-5.28-4.65-5.28-4.65Z"/>
      <path class="cls-7" d="M238.26,89.57c.18,.83,.32,1.67,.39,2.48,2.29-.46,5.35-2.9,5.67-5.24,.12-.88,.14-1.73,.08-2.34l-6.14,5.1Z"/>
      <path class="cls-6" d="M234.97,63.55c-3.33,1.96-2.8,7-3.71,10.58,2.12,.21,5.46-3.56,5.46-3.56l1.99-5.73-3.75-1.29Z"/>
      <path class="cls-13" d="M252.71,73.61c-2.13,7.06-3.02,11.29-7.52,14.24-6.77,4.43-14.89-.62-14.92-8.1-.03-6.73,3.46-17.15,11.18-18.59,7.61-1.42,13.39,5.4,11.26,12.46Z"/>
      <path class="cls-6" d="M246.06,79.6c5-5.8-1.25-8.66,3.86-12.69-5.75,.27-15.22-.14-16.91-4.08-1.69-3.94,3.51-9.28,7.84-9.78,5.04-.58,3.92,5.61,3.92,5.61,0,0,19.14-1.19,13.06,6.94,4.6-.28,3.34,7.17-4.67,13.44-2.01,.72-7.1,.55-7.1,.55Z"/>
      <path class="cls-6" d="M256.68,65.76s3.94-1.17,3.8-4.29c1.43,.98,1.57,3.96-3.8,4.29Z"/>
      <path class="cls-13" d="M253.88,80.98c-1.27,1.56-3.04,2.5-4.55,2.77-2.27,.41-2.8-1.69-1.67-3.73,1.02-1.84,3.43-4.28,5.47-3.76,2.01,.51,2.2,2.94,.75,4.73Z"/>
      <path class="cls-6" d="M241.32,73.42c-.14,.58-.56,.99-.94,.92-.38-.08-.58-.61-.45-1.19,.14-.58,.56-.99,.94-.92,.38,.08,.58,.61,.45,1.19Z"/>
      <path class="cls-6" d="M234.69,72.1c-.14,.58-.56,.99-.94,.92-.38-.08-.58-.61-.45-1.19,.14-.58,.56-.99,.94-.92,.38,.08,.58,.61,.45,1.19Z"/>
      <path class="cls-11" d="M236.73,72.81s-2.13,3.09-3.98,4.42c.81,1.17,2.68,1.08,2.68,1.08l1.3-5.5Z"/>
      <path class="cls-6" d="M237.45,80.36c2.35,.19,3.78-1.18,3.84-1.24,.07-.07,.07-.18,0-.25-.07-.07-.18-.07-.25,0-.02,.02-1.64,1.57-4.22,1.05-.1-.02-.19,.04-.21,.14-.02,.09,.04,.19,.14,.21,.24,.05,.47,.08,.69,.1Z"/>
      <path class="cls-6" d="M243.88,71.81c.06,0,.12,0,.17-.03,.18-.08,.25-.29,.17-.47-.8-1.75-2.41-1.97-2.48-1.98-.18-.04-.37,.11-.39,.3-.02,.19,.11,.37,.3,.39,.07,0,1.3,.2,1.93,1.57,.06,.12,.17,.19,.29,.2Z"/>
      <path class="cls-6" d="M233.05,68.12c.11,.03,.23,.02,.32-.06,1.26-.98,2.51-.6,2.52-.6,.19,.06,.38-.04,.44-.23,.06-.18-.04-.38-.23-.44,0,0,0,0,0,0-.07-.02-1.62-.49-3.17,.71-.15,.12-.18,.34-.06,.49,.04,.06,.1,.1,.17,.12Z"/>
      <path class="cls-6" d="M262.03,103.13l.84,1.14,.75,1.06c.49,.71,.95,1.42,1.41,2.13,.92,1.42,1.77,2.87,2.61,4.33,1.65,2.93,3.17,5.92,4.52,9,.7,1.53,1.31,3.1,1.94,4.66,.56,1.59,1.18,3.16,1.67,4.78,1.09,3.19,1.88,6.51,2.6,9.83l.08,.38c.31,1.41,0,2.82-.72,3.94-1.26,1.94-2.79,3.77-4.55,5.39-1.74,1.64-3.8,3-5.98,4.03-2.19,1.02-4.53,1.66-6.86,1.9-1.17,.12-2.34,.14-3.49,.06-.58-.04-1.16-.11-1.74-.2-.29-.05-.58-.11-.88-.17l-1.01-.24c-.25-.06-.4-.31-.34-.56l1.38-5.8s.26-.06,.42-.1l.55-.11c.37-.08,.75-.17,1.13-.27,.75-.2,1.48-.46,2.17-.75,1.39-.59,2.67-1.33,3.79-2.23,2.26-1.77,3.94-4.12,5.27-6.85l-.64,4.32c-.86-2.83-1.76-5.64-2.87-8.4-1.08-2.76-2.29-5.49-3.61-8.17-1.32-2.68-2.71-5.33-4.22-7.91-.74-1.3-1.53-2.56-2.3-3.82l-1.19-1.86-.59-.9-.55-.8-.2-.29c-2.02-2.97-1.25-7.01,1.72-9.02,2.9-1.97,6.83-1.27,8.89,1.52Z"/>
      <path class="cls-13" d="M248.78,154.53l-2.16,3.53,9.34-.38s2.44-6.28-.9-7.27l-1.29,.36c-2.08,.58-3.86,1.92-4.99,3.76Z"/>
      <path class="cls-14" d="M252.62,149.6c-.57,.38-1.17,.93-1.7,1.71,2.54,1.38,6.08,6.08,6.08,6.08l.82-2.58c.21-.68,.12-1.41-.27-2.01l-1.59-2.49c-.72-1.13-2.23-1.46-3.34-.71Z"/>
      <polygon class="cls-13" points="247.45 163.47 255.14 162.79 255.96 157.67 246.63 158.05 247.45 163.47"/>
    </g>
  </g>
  <g id="Clock">
    <g>
      <path class="cls-14" d="M153.06,41.38l-.51-.86c1.46-.87,3-1.63,4.58-2.27l.38,.93c-1.53,.62-3.02,1.37-4.44,2.21Z"/>
      <path class="cls-14" d="M138.46,59l-.94-.34c2.37-6.54,6.61-12.18,12.26-16.3l.59,.81c-5.49,4-9.61,9.48-11.91,15.84Z"/>
      <circle class="cls-14" cx="170.2" cy="70.44" r="30.78"/>
      <path class="cls-3" d="M195.91,70.44c0,14.21-11.51,25.72-25.71,25.72-6.73,0-12.86-2.59-17.44-6.82-5.09-4.7-8.28-11.43-8.28-18.89,0-14.2,11.52-25.72,25.72-25.72,7.53,0,14.29,3.23,19,8.38,.01,0,.03,.01,.05,.05,4.14,4.57,6.67,10.63,6.67,17.29Z"/>
      <path class="cls-2" d="M195.91,70.44c0,14.21-11.51,25.72-25.71,25.72-6.73,0-12.86-2.59-17.44-6.82-4.24-4.58-6.83-10.72-6.83-17.45,0-14.2,11.52-25.72,25.72-25.72,6.8,0,12.95,2.62,17.55,6.94,.01,0,.03,.01,.05,.05,4.14,4.57,6.67,10.63,6.67,17.29Z"/>
      <path class="cls-6" d="M170.2,71.94c-.38,0-.77-.15-1.06-.44l-12.54-12.54c-.59-.59-.59-1.54,0-2.12,.59-.59,1.54-.59,2.12,0l11.48,11.48,6.63-6.63c.59-.59,1.54-.59,2.12,0,.59,.59,.59,1.54,0,2.12l-7.69,7.69c-.29,.29-.68,.44-1.06,.44Z"/>
    </g>
  </g>
</svg>